M48
INCH,TZ
T1C0.016
T2C0.028
T3C0.031
T4C0.039
T5C0.039
T6C0.043
%
G90
G05
T1
X43290Y-31926
X45640Y-29568
X46650Y-29200
X48930Y-38100
X50550Y-39376
X50950Y-39150
X51850Y-40250
X51870Y-37680
X52300Y-27150
X52600Y-27000
X53056Y-35956
X53550Y-43100
X54186Y-38072
X55012Y-32120
X55044Y-37290
X55500Y-37850
X55572Y-38820
X55700Y-36650
X55938Y-35928
X56320Y-35574
X56600Y-42800
X57732Y-35586
X58150Y-48050
X58200Y-36250
X58300Y-44850
X58800Y-45950
X58850Y-47350
X59696Y-41616
X59744Y-40416
X60104Y-31750
T2
X42600Y-32600
X42600Y-34600
X42600Y-35900
X42600Y-37900
X63000Y-39500
X65000Y-39500
T3
X53000Y-28000
X53000Y-29000
X53000Y-30000
X53000Y-31000
X53000Y-32000
X53000Y-33000
X53000Y-34000
X53000Y-35000
X56000Y-28000
X56000Y-29000
X56000Y-30000
X56000Y-31000
X56000Y-32000
X56000Y-33000
X56000Y-34000
X56000Y-35000
T4
X44400Y-34300
X44400Y-35400
X44400Y-36500
X44400Y-37600
X45400Y-34300
X45400Y-35400
X45400Y-36500
X45400Y-37600
X46400Y-34300
X46400Y-35400
X46400Y-36500
X46400Y-37600
X47400Y-34300
X47400Y-35400
X47400Y-36500
X47400Y-37600
X50000Y-34000
X50000Y-35000
X50000Y-36000
X50000Y-37000
X51000Y-25002
X51000Y-26002
X51000Y-27002
X51000Y-28002
X51000Y-34000
X51000Y-35000
X51000Y-36000
X51000Y-37000
X51000Y-42000
X51000Y-43000
X51000Y-44000
X51000Y-45000
X51000Y-48000
X51000Y-49000
X52000Y-32000
X52000Y-33000
X52000Y-34000
X52000Y-35000
X53000Y-37000
X53000Y-38000
X53000Y-39000
X53000Y-40000
X53000Y-41000
X53000Y-42000
X53000Y-44000
X53000Y-45000
X53000Y-46000
X53000Y-47000
X53000Y-48000
X53000Y-49000
X57000Y-37000
X57000Y-38000
X57000Y-39000
X57000Y-40000
X57000Y-41000
X57000Y-42000
X57000Y-44000
X57000Y-45000
X57000Y-46000
X57000Y-47000
X57000Y-48000
X57000Y-49000
X57140Y-26800
X57140Y-27800
X57140Y-28800
X58000Y-30000
X58000Y-31000
X58000Y-32000
X58000Y-33000
X58000Y-34000
X58000Y-35000
X59000Y-27000
X59000Y-28000
X59000Y-29000
X59000Y-30000
X59000Y-31000
X59000Y-32000
X59000Y-33000
X59000Y-34000
X59000Y-35000
X59000Y-37000
X59000Y-38000
X59000Y-39000
X59000Y-40000
X59000Y-41000
X59000Y-42000
X59000Y-43000
X59000Y-44000
X60300Y-46500
X61200Y-39500
X61200Y-40500
X61200Y-41500
X61200Y-42500
X63292Y-46500
T5
X39500Y-30000
X40500Y-30000
X41500Y-30000
X42500Y-30000
X43500Y-30000
X48500Y-42750
X48500Y-43750
X48500Y-44750
X48500Y-45750
X52600Y-25300
X53600Y-25300
X54600Y-25300
X55600Y-25300
X56600Y-25300
X57600Y-25300
X58600Y-25300
X59600Y-25300
T6
X39878Y-31550
X39878Y-34109
X39878Y-35350
X39878Y-37909
X41650Y-31550
X41650Y-34109
X41650Y-35350
X41650Y-37909
T0
M30
