G04 #@! TF.FileFunction,Copper,L2,Bot,Signal*
%FSLAX46Y46*%
G04 Gerber Fmt 4.6, Leading zero omitted, Abs format (unit mm)*
G04 Created by KiCad (PCBNEW 4.0.5) date 11/02/17 17:50:55*
%MOMM*%
%LPD*%
G01*
G04 APERTURE LIST*
%ADD10C,0.100000*%
%ADD11C,5.400000*%
%ADD12R,1.700000X1.700000*%
%ADD13O,1.700000X1.700000*%
%ADD14R,1.600000X1.600000*%
%ADD15O,1.600000X1.600000*%
%ADD16R,2.199640X1.524000*%
%ADD17O,2.199640X1.524000*%
%ADD18C,2.499360*%
%ADD19R,1.524000X2.199640*%
%ADD20O,1.524000X2.199640*%
%ADD21C,2.000000*%
%ADD22C,0.600000*%
%ADD23C,0.600000*%
%ADD24C,0.250000*%
%ADD25C,0.400000*%
%ADD26C,0.254000*%
G04 APERTURE END LIST*
D10*
D11*
X173540000Y-123000000D03*
D12*
X145135600Y-73152000D03*
D13*
X145135600Y-70612000D03*
X145135600Y-68072000D03*
D14*
X134620000Y-71120000D03*
D15*
X142240000Y-88900000D03*
X134620000Y-73660000D03*
X142240000Y-86360000D03*
X134620000Y-76200000D03*
X142240000Y-83820000D03*
X134620000Y-78740000D03*
X142240000Y-81280000D03*
X134620000Y-81280000D03*
X142240000Y-78740000D03*
X134620000Y-83820000D03*
X142240000Y-76200000D03*
X134620000Y-86360000D03*
X142240000Y-73660000D03*
X134620000Y-88900000D03*
X142240000Y-71120000D03*
D13*
X134620000Y-93980000D03*
X134620000Y-96520000D03*
X134620000Y-99060000D03*
X134620000Y-101600000D03*
X134620000Y-104140000D03*
D12*
X134620000Y-106680000D03*
X144780000Y-106680000D03*
D13*
X144780000Y-104140000D03*
X144780000Y-101600000D03*
X144780000Y-99060000D03*
X144780000Y-96520000D03*
X144780000Y-93980000D03*
X134620000Y-111760000D03*
X134620000Y-114300000D03*
X134620000Y-116840000D03*
X134620000Y-119380000D03*
X134620000Y-121920000D03*
D12*
X134620000Y-124460000D03*
X144780000Y-124460000D03*
D13*
X144780000Y-121920000D03*
X144780000Y-119380000D03*
X144780000Y-116840000D03*
X144780000Y-114300000D03*
X144780000Y-111760000D03*
D12*
X149860000Y-101600000D03*
D13*
X149860000Y-99060000D03*
X149860000Y-96520000D03*
X149860000Y-93980000D03*
D12*
X149860000Y-76200000D03*
D13*
X149860000Y-78740000D03*
X149860000Y-81280000D03*
D12*
X147320000Y-76200000D03*
D13*
X147320000Y-78740000D03*
X147320000Y-81280000D03*
D12*
X149860000Y-83820000D03*
D13*
X149860000Y-86360000D03*
X149860000Y-88900000D03*
D12*
X147320000Y-83820000D03*
D13*
X147320000Y-86360000D03*
X147320000Y-88900000D03*
D12*
X129540000Y-93980000D03*
D13*
X129540000Y-91440000D03*
X129540000Y-88900000D03*
X129540000Y-86360000D03*
D12*
X129540000Y-114300000D03*
D13*
X129540000Y-111760000D03*
X129540000Y-109220000D03*
X129540000Y-106680000D03*
D12*
X127000000Y-93980000D03*
D13*
X127000000Y-91440000D03*
X127000000Y-88900000D03*
X127000000Y-86360000D03*
D12*
X149860000Y-111760000D03*
D13*
X149860000Y-109220000D03*
X149860000Y-106680000D03*
X149860000Y-104140000D03*
D12*
X149860000Y-73660000D03*
D13*
X149860000Y-71120000D03*
X149860000Y-68580000D03*
D12*
X132080000Y-88900000D03*
D13*
X132080000Y-86360000D03*
X132080000Y-83820000D03*
X132080000Y-81280000D03*
D16*
X123190000Y-108585000D03*
D17*
X123190000Y-111125000D03*
X123190000Y-113665000D03*
X123190000Y-116205000D03*
D12*
X129540000Y-124460000D03*
D13*
X129540000Y-121920000D03*
D18*
X162941000Y-118237000D03*
X152781000Y-118237000D03*
D19*
X110363000Y-76073000D03*
D20*
X107823000Y-76073000D03*
X105283000Y-76073000D03*
X102743000Y-76073000D03*
X100203000Y-76073000D03*
D19*
X151257000Y-64262000D03*
D20*
X148717000Y-64262000D03*
X146177000Y-64262000D03*
X143637000Y-64262000D03*
X141097000Y-64262000D03*
X138557000Y-64262000D03*
X136017000Y-64262000D03*
X133477000Y-64262000D03*
D21*
X101291000Y-89789000D03*
X105791000Y-89789000D03*
X101291000Y-96289000D03*
X105791000Y-96289000D03*
X101291000Y-80137000D03*
X105791000Y-80137000D03*
X101291000Y-86637000D03*
X105791000Y-86637000D03*
D12*
X155448000Y-100330000D03*
D13*
X155448000Y-102870000D03*
X155448000Y-105410000D03*
X155448000Y-107950000D03*
D12*
X120396000Y-87122000D03*
D13*
X117856000Y-87122000D03*
X115316000Y-87122000D03*
X112776000Y-87122000D03*
D12*
X120396000Y-89916000D03*
D13*
X117856000Y-89916000D03*
X115316000Y-89916000D03*
X112776000Y-89916000D03*
D12*
X120396000Y-92710000D03*
D13*
X117856000Y-92710000D03*
X115316000Y-92710000D03*
X112776000Y-92710000D03*
D12*
X120396000Y-95504000D03*
D13*
X117856000Y-95504000D03*
X115316000Y-95504000D03*
X112776000Y-95504000D03*
D12*
X129540000Y-71125080D03*
D13*
X129540000Y-68585080D03*
X129540000Y-66045080D03*
X129540000Y-63505080D03*
D11*
X124540000Y-65000000D03*
D22*
X147828000Y-92075000D03*
X141478000Y-93091000D03*
X140970000Y-96139000D03*
X151765000Y-92075000D03*
X141152880Y-98602800D03*
X137632440Y-96702880D03*
X134762240Y-91328240D03*
X131749800Y-95707200D03*
X128397000Y-100015040D03*
X124282200Y-96774000D03*
X115925600Y-75102720D03*
X109956600Y-81092040D03*
X147701000Y-122047000D03*
X152665002Y-80645000D03*
X139730480Y-81584800D03*
X143052800Y-90357960D03*
X146639280Y-90388440D03*
X142082520Y-91257120D03*
X139811760Y-94716600D03*
X131699000Y-102235000D03*
X136017000Y-109474000D03*
X148082000Y-113919000D03*
X149352000Y-116713000D03*
X149479000Y-120269000D03*
X133604000Y-68580000D03*
X129413000Y-99441000D03*
X151749760Y-102656640D03*
X151627840Y-105704640D03*
X132842000Y-68961000D03*
X143764000Y-108712000D03*
X118491000Y-74168000D03*
D23*
X147066000Y-92075000D02*
X147828000Y-92075000D01*
X151765000Y-92075000D02*
X147066000Y-92075000D01*
X123190000Y-111125000D02*
X124968000Y-111125000D01*
X132207000Y-99060000D02*
X134620000Y-99060000D01*
X126746000Y-104521000D02*
X132207000Y-99060000D01*
X126746000Y-109347000D02*
X126746000Y-104521000D01*
X124968000Y-111125000D02*
X126746000Y-109347000D01*
X134620000Y-99060000D02*
X135763000Y-99060000D01*
X135763000Y-99060000D02*
X137414000Y-100711000D01*
X137414000Y-100711000D02*
X137414000Y-115951000D01*
X137414000Y-115951000D02*
X136271000Y-117094000D01*
X136271000Y-117094000D02*
X134874000Y-117094000D01*
X134874000Y-117094000D02*
X134620000Y-116840000D01*
X141478000Y-93091000D02*
X140970000Y-93599000D01*
X140970000Y-93599000D02*
X140970000Y-96139000D01*
X149860000Y-73660000D02*
X150368000Y-73660000D01*
X150368000Y-73660000D02*
X151765000Y-75057000D01*
X151765000Y-75057000D02*
X151765000Y-92075000D01*
X139532360Y-98602800D02*
X141152880Y-98602800D01*
X137632440Y-96702880D02*
X139532360Y-98602800D01*
X132857240Y-91328240D02*
X134762240Y-91328240D01*
X132095240Y-92090240D02*
X132857240Y-91328240D01*
X132095240Y-95361760D02*
X132095240Y-92090240D01*
X131749800Y-95707200D02*
X132095240Y-95361760D01*
X127523240Y-100015040D02*
X128397000Y-100015040D01*
X124282200Y-96774000D02*
X127523240Y-100015040D01*
X115925600Y-75123040D02*
X115925600Y-75102720D01*
X109956600Y-81092040D02*
X115925600Y-75123040D01*
X144780000Y-99060000D02*
X144780000Y-98679000D01*
X144780000Y-98679000D02*
X146812000Y-96647000D01*
X145669000Y-85471000D02*
X147320000Y-83820000D01*
X145669000Y-92075000D02*
X145669000Y-85471000D01*
X146812000Y-93218000D02*
X145669000Y-92075000D01*
X146812000Y-96647000D02*
X146812000Y-93218000D01*
X149860000Y-71120000D02*
X148971000Y-71120000D01*
X147320000Y-72771000D02*
X147320000Y-76200000D01*
X148971000Y-71120000D02*
X147320000Y-72771000D01*
X147320000Y-83820000D02*
X146977002Y-83820000D01*
X146977002Y-83820000D02*
X145669000Y-82511998D01*
X145669000Y-82511998D02*
X145669000Y-77851000D01*
X145669000Y-77851000D02*
X147320000Y-76200000D01*
X149860000Y-101600000D02*
X152273000Y-101600000D01*
X150495000Y-124841000D02*
X147701000Y-122047000D01*
X151257000Y-124841000D02*
X150495000Y-124841000D01*
X155194000Y-120904000D02*
X151257000Y-124841000D01*
X155194000Y-116586000D02*
X155194000Y-120904000D01*
X153543000Y-114935000D02*
X155194000Y-116586000D01*
X153543000Y-109220000D02*
X153543000Y-114935000D01*
X152781000Y-108458000D02*
X153543000Y-109220000D01*
X152781000Y-102108000D02*
X152781000Y-108458000D01*
X152273000Y-101600000D02*
X152781000Y-102108000D01*
X149860000Y-93980000D02*
X151765000Y-93980000D01*
X156845000Y-107950000D02*
X155448000Y-107950000D01*
X158432500Y-106362500D02*
X156845000Y-107950000D01*
X158432500Y-100076000D02*
X158432500Y-106362500D01*
X157099000Y-98742500D02*
X158432500Y-100076000D01*
X153225500Y-98742500D02*
X157099000Y-98742500D01*
X152844500Y-98361500D02*
X153225500Y-98742500D01*
X152844500Y-95059500D02*
X152844500Y-98361500D01*
X151765000Y-93980000D02*
X152844500Y-95059500D01*
X149860000Y-68580000D02*
X150622000Y-68580000D01*
X150622000Y-68580000D02*
X152665002Y-70623002D01*
X152665002Y-70623002D02*
X152665002Y-80645000D01*
D24*
X139730480Y-81584800D02*
X140848080Y-82702400D01*
X140848080Y-82702400D02*
X140848080Y-84383880D01*
X140848080Y-84383880D02*
X141513560Y-85049360D01*
X141513560Y-85049360D02*
X143045958Y-85049360D01*
X143045958Y-85049360D02*
X143474440Y-85477842D01*
X143474440Y-85477842D02*
X143474440Y-89936320D01*
X143474440Y-89936320D02*
X143052800Y-90357960D01*
X146639280Y-90388440D02*
X146654520Y-90403680D01*
X146654520Y-90403680D02*
X149214840Y-90403680D01*
X149214840Y-90403680D02*
X149860000Y-89758520D01*
X149860000Y-89758520D02*
X149860000Y-88900000D01*
X141853920Y-91257120D02*
X142082520Y-91257120D01*
X139766040Y-93345000D02*
X141853920Y-91257120D01*
X139766040Y-94670880D02*
X139766040Y-93345000D01*
X139811760Y-94716600D02*
X139766040Y-94670880D01*
D25*
X119126000Y-76073000D02*
X112776000Y-82423000D01*
X143637000Y-64262000D02*
X143637000Y-64643000D01*
X143637000Y-64643000D02*
X142113000Y-66167000D01*
X142113000Y-66167000D02*
X132461000Y-66167000D01*
X132461000Y-66167000D02*
X131191000Y-67437000D01*
X131191000Y-67437000D02*
X131191000Y-72263000D01*
X131191000Y-72263000D02*
X127381000Y-76073000D01*
X127381000Y-76073000D02*
X119126000Y-76073000D01*
X112776000Y-82423000D02*
X112776000Y-87122000D01*
X146177000Y-64262000D02*
X145923000Y-64262000D01*
X145923000Y-64262000D02*
X143129000Y-67056000D01*
X115316000Y-81026000D02*
X115316000Y-87122000D01*
X119507000Y-76835000D02*
X115316000Y-81026000D01*
X127762000Y-76835000D02*
X119507000Y-76835000D01*
X132080000Y-72517000D02*
X127762000Y-76835000D01*
X132080000Y-67818000D02*
X132080000Y-72517000D01*
X132842000Y-67056000D02*
X132080000Y-67818000D01*
X143129000Y-67056000D02*
X132842000Y-67056000D01*
X144780000Y-114300000D02*
X144780000Y-113792000D01*
X144780000Y-113792000D02*
X146431000Y-112141000D01*
X146431000Y-112141000D02*
X146431000Y-108839000D01*
X146431000Y-108839000D02*
X147955000Y-107315000D01*
X147955000Y-107315000D02*
X147955000Y-99949000D01*
X147955000Y-99949000D02*
X148844000Y-99060000D01*
X148844000Y-99060000D02*
X149860000Y-99060000D01*
X144780000Y-111760000D02*
X144780000Y-109347000D01*
X148590000Y-96520000D02*
X149860000Y-96520000D01*
X147193000Y-97917000D02*
X148590000Y-96520000D01*
X147193000Y-106934000D02*
X147193000Y-97917000D01*
X144780000Y-109347000D02*
X147193000Y-106934000D01*
X144780000Y-121920000D02*
X146050000Y-121920000D01*
X152273000Y-109093000D02*
X149860000Y-106680000D01*
X152273000Y-115697000D02*
X152273000Y-109093000D01*
X146050000Y-121920000D02*
X152273000Y-115697000D01*
X129540000Y-109220000D02*
X129921000Y-109220000D01*
X129921000Y-109220000D02*
X131445000Y-110744000D01*
X131445000Y-110744000D02*
X131445000Y-123063000D01*
X131445000Y-123063000D02*
X132842000Y-124460000D01*
X132842000Y-124460000D02*
X134620000Y-124460000D01*
X140649960Y-97155000D02*
X140649960Y-96951800D01*
X140589000Y-86360000D02*
X142240000Y-86360000D01*
X139593320Y-86360000D02*
X140589000Y-86360000D01*
X138928402Y-87024918D02*
X139593320Y-86360000D01*
X138928402Y-95230242D02*
X138928402Y-87024918D01*
X140649960Y-96951800D02*
X138928402Y-95230242D01*
X140589000Y-97155000D02*
X140649960Y-97155000D01*
X140649960Y-97155000D02*
X142113000Y-97155000D01*
X142113000Y-97155000D02*
X142113000Y-98044000D01*
X143383000Y-106680000D02*
X144780000Y-106680000D01*
X142113000Y-105410000D02*
X143383000Y-106680000D01*
X142113000Y-97155000D02*
X142113000Y-98044000D01*
X142113000Y-98044000D02*
X142113000Y-105410000D01*
X142240000Y-83820000D02*
X143383000Y-83820000D01*
X142875000Y-102235000D02*
X144780000Y-104140000D01*
X142875000Y-92710000D02*
X142875000Y-102235000D01*
X144018000Y-91567000D02*
X142875000Y-92710000D01*
X144018000Y-84455000D02*
X144018000Y-91567000D01*
X143383000Y-83820000D02*
X144018000Y-84455000D01*
X142240000Y-78740000D02*
X142621000Y-78740000D01*
X142621000Y-78740000D02*
X144780000Y-80899000D01*
X144780000Y-80899000D02*
X144780000Y-93980000D01*
X132842000Y-74168000D02*
X132842000Y-70612000D01*
X131699000Y-102235000D02*
X132461000Y-102997000D01*
X132461000Y-102997000D02*
X132461000Y-108458000D01*
X132461000Y-108458000D02*
X133477000Y-109474000D01*
X133477000Y-109474000D02*
X136017000Y-109474000D01*
X148082000Y-113919000D02*
X149352000Y-115189000D01*
X149352000Y-115189000D02*
X149352000Y-116713000D01*
X149479000Y-120269000D02*
X149606000Y-120142000D01*
X149606000Y-120142000D02*
X150876000Y-120142000D01*
X152781000Y-118237000D02*
X150876000Y-120142000D01*
X124460000Y-94488000D02*
X129413000Y-99441000D01*
X124460000Y-82550000D02*
X124460000Y-94488000D01*
X132842000Y-74168000D02*
X124460000Y-82550000D01*
X133604000Y-69850000D02*
X133604000Y-68580000D01*
X132842000Y-70612000D02*
X133604000Y-69850000D01*
D24*
X151749760Y-105582720D02*
X151749760Y-102656640D01*
X151627840Y-105704640D02*
X151749760Y-105582720D01*
D25*
X138328400Y-103898798D02*
X138328400Y-98907600D01*
X138607800Y-104178198D02*
X138328400Y-103898798D01*
X138607800Y-104317800D02*
X138607800Y-104178198D01*
X136372600Y-68188840D02*
X136372600Y-68153842D01*
X136550400Y-68366640D02*
X136372600Y-68188840D01*
X136550400Y-97129600D02*
X136550400Y-68366640D01*
X138328400Y-98907600D02*
X136550400Y-97129600D01*
X136372600Y-68153842D02*
X135874760Y-67656002D01*
X135874760Y-67656002D02*
X134712002Y-67656002D01*
X133130998Y-67656002D02*
X134712002Y-67656002D01*
X132842000Y-67945000D02*
X133130998Y-67656002D01*
X132842000Y-68961000D02*
X132842000Y-67945000D01*
X143002000Y-108712000D02*
X143764000Y-108712000D01*
X138557000Y-104267000D02*
X138607800Y-104317800D01*
X138607800Y-104317800D02*
X143002000Y-108712000D01*
X129540000Y-71120000D02*
X129540000Y-72771000D01*
X108585000Y-89789000D02*
X105791000Y-89789000D01*
X109728000Y-88646000D02*
X108585000Y-89789000D01*
X109728000Y-84455000D02*
X109728000Y-88646000D01*
X118999000Y-75184000D02*
X109728000Y-84455000D01*
X127127000Y-75184000D02*
X118999000Y-75184000D01*
X129540000Y-72771000D02*
X127127000Y-75184000D01*
X105791000Y-80137000D02*
X107315000Y-80137000D01*
X109453680Y-82275680D02*
X107315000Y-80137000D01*
X110383320Y-82275680D02*
X109453680Y-82275680D01*
X118491000Y-74168000D02*
X110383320Y-82275680D01*
D26*
G36*
X153531500Y-63159092D02*
X153531500Y-95186500D01*
X153585546Y-95458205D01*
X153739454Y-95688546D01*
X156152454Y-98101546D01*
X156382795Y-98255454D01*
X156654500Y-98309500D01*
X164424908Y-98309500D01*
X166485500Y-100370092D01*
X166485500Y-116459000D01*
X166539546Y-116730705D01*
X166693454Y-116961046D01*
X168280954Y-118548546D01*
X168511295Y-118702454D01*
X168783000Y-118756500D01*
X176426408Y-118756500D01*
X177852000Y-120182092D01*
X177852000Y-125245408D01*
X176299408Y-126798000D01*
X99608092Y-126798000D01*
X98055500Y-125245408D01*
X98055500Y-107696691D01*
X121455180Y-107696691D01*
X121455180Y-108299250D01*
X121613930Y-108458000D01*
X123063000Y-108458000D01*
X123063000Y-107346750D01*
X123317000Y-107346750D01*
X123317000Y-108458000D01*
X124766070Y-108458000D01*
X124924820Y-108299250D01*
X124924820Y-107696691D01*
X124828147Y-107463302D01*
X124649519Y-107284673D01*
X124416130Y-107188000D01*
X123475750Y-107188000D01*
X123317000Y-107346750D01*
X123063000Y-107346750D01*
X122904250Y-107188000D01*
X121963870Y-107188000D01*
X121730481Y-107284673D01*
X121551853Y-107463302D01*
X121455180Y-107696691D01*
X98055500Y-107696691D01*
X98055500Y-97441532D01*
X100318073Y-97441532D01*
X100416736Y-97708387D01*
X101026461Y-97934908D01*
X101676460Y-97910856D01*
X102165264Y-97708387D01*
X102263927Y-97441532D01*
X101291000Y-96468605D01*
X100318073Y-97441532D01*
X98055500Y-97441532D01*
X98055500Y-96024461D01*
X99645092Y-96024461D01*
X99669144Y-96674460D01*
X99871613Y-97163264D01*
X100138468Y-97261927D01*
X101111395Y-96289000D01*
X101470605Y-96289000D01*
X102443532Y-97261927D01*
X102710387Y-97163264D01*
X102914893Y-96612795D01*
X104155716Y-96612795D01*
X104404106Y-97213943D01*
X104863637Y-97674278D01*
X105464352Y-97923716D01*
X106114795Y-97924284D01*
X106715943Y-97675894D01*
X107176278Y-97216363D01*
X107425716Y-96615648D01*
X107426284Y-95965205D01*
X107177894Y-95364057D01*
X106718363Y-94903722D01*
X106117648Y-94654284D01*
X105467205Y-94653716D01*
X104866057Y-94902106D01*
X104405722Y-95361637D01*
X104156284Y-95962352D01*
X104155716Y-96612795D01*
X102914893Y-96612795D01*
X102936908Y-96553539D01*
X102912856Y-95903540D01*
X102710387Y-95414736D01*
X102443532Y-95316073D01*
X101470605Y-96289000D01*
X101111395Y-96289000D01*
X100138468Y-95316073D01*
X99871613Y-95414736D01*
X99645092Y-96024461D01*
X98055500Y-96024461D01*
X98055500Y-95136468D01*
X100318073Y-95136468D01*
X101291000Y-96109395D01*
X102263927Y-95136468D01*
X102165264Y-94869613D01*
X101555539Y-94643092D01*
X100905540Y-94667144D01*
X100416736Y-94869613D01*
X100318073Y-95136468D01*
X98055500Y-95136468D01*
X98055500Y-90941532D01*
X100318073Y-90941532D01*
X100416736Y-91208387D01*
X101026461Y-91434908D01*
X101676460Y-91410856D01*
X102165264Y-91208387D01*
X102263927Y-90941532D01*
X101291000Y-89968605D01*
X100318073Y-90941532D01*
X98055500Y-90941532D01*
X98055500Y-89524461D01*
X99645092Y-89524461D01*
X99669144Y-90174460D01*
X99871613Y-90663264D01*
X100138468Y-90761927D01*
X101111395Y-89789000D01*
X101470605Y-89789000D01*
X102443532Y-90761927D01*
X102710387Y-90663264D01*
X102936908Y-90053539D01*
X102912856Y-89403540D01*
X102710387Y-88914736D01*
X102443532Y-88816073D01*
X101470605Y-89789000D01*
X101111395Y-89789000D01*
X100138468Y-88816073D01*
X99871613Y-88914736D01*
X99645092Y-89524461D01*
X98055500Y-89524461D01*
X98055500Y-87789532D01*
X100318073Y-87789532D01*
X100416736Y-88056387D01*
X100815381Y-88204489D01*
X100416736Y-88369613D01*
X100318073Y-88636468D01*
X101291000Y-89609395D01*
X102263927Y-88636468D01*
X102165264Y-88369613D01*
X101766619Y-88221511D01*
X102165264Y-88056387D01*
X102263927Y-87789532D01*
X101291000Y-86816605D01*
X100318073Y-87789532D01*
X98055500Y-87789532D01*
X98055500Y-86372461D01*
X99645092Y-86372461D01*
X99669144Y-87022460D01*
X99871613Y-87511264D01*
X100138468Y-87609927D01*
X101111395Y-86637000D01*
X101470605Y-86637000D01*
X102443532Y-87609927D01*
X102710387Y-87511264D01*
X102936908Y-86901539D01*
X102912856Y-86251540D01*
X102710387Y-85762736D01*
X102443532Y-85664073D01*
X101470605Y-86637000D01*
X101111395Y-86637000D01*
X100138468Y-85664073D01*
X99871613Y-85762736D01*
X99645092Y-86372461D01*
X98055500Y-86372461D01*
X98055500Y-85484468D01*
X100318073Y-85484468D01*
X101291000Y-86457395D01*
X102263927Y-85484468D01*
X102165264Y-85217613D01*
X101555539Y-84991092D01*
X100905540Y-85015144D01*
X100416736Y-85217613D01*
X100318073Y-85484468D01*
X98055500Y-85484468D01*
X98055500Y-81289532D01*
X100318073Y-81289532D01*
X100416736Y-81556387D01*
X101026461Y-81782908D01*
X101676460Y-81758856D01*
X102165264Y-81556387D01*
X102263927Y-81289532D01*
X101291000Y-80316605D01*
X100318073Y-81289532D01*
X98055500Y-81289532D01*
X98055500Y-79872461D01*
X99645092Y-79872461D01*
X99669144Y-80522460D01*
X99871613Y-81011264D01*
X100138468Y-81109927D01*
X101111395Y-80137000D01*
X101470605Y-80137000D01*
X102443532Y-81109927D01*
X102710387Y-81011264D01*
X102914893Y-80460795D01*
X104155716Y-80460795D01*
X104404106Y-81061943D01*
X104863637Y-81522278D01*
X105464352Y-81771716D01*
X106114795Y-81772284D01*
X106715943Y-81523894D01*
X107118836Y-81121704D01*
X108863246Y-82866114D01*
X109134139Y-83047119D01*
X109453680Y-83110680D01*
X109891452Y-83110680D01*
X109137566Y-83864566D01*
X108956561Y-84135459D01*
X108893000Y-84455000D01*
X108893000Y-88300132D01*
X108239132Y-88954000D01*
X107215058Y-88954000D01*
X107177894Y-88864057D01*
X106718363Y-88403722D01*
X106258663Y-88212839D01*
X106715943Y-88023894D01*
X107176278Y-87564363D01*
X107425716Y-86963648D01*
X107426284Y-86313205D01*
X107177894Y-85712057D01*
X106718363Y-85251722D01*
X106117648Y-85002284D01*
X105467205Y-85001716D01*
X104866057Y-85250106D01*
X104405722Y-85709637D01*
X104156284Y-86310352D01*
X104155716Y-86960795D01*
X104404106Y-87561943D01*
X104863637Y-88022278D01*
X105323337Y-88213161D01*
X104866057Y-88402106D01*
X104405722Y-88861637D01*
X104156284Y-89462352D01*
X104155716Y-90112795D01*
X104404106Y-90713943D01*
X104863637Y-91174278D01*
X105464352Y-91423716D01*
X106114795Y-91424284D01*
X106715943Y-91175894D01*
X107176278Y-90716363D01*
X107214630Y-90624000D01*
X108585000Y-90624000D01*
X108904541Y-90560439D01*
X109175434Y-90379434D01*
X110318434Y-89236434D01*
X110358601Y-89176320D01*
X110499439Y-88965541D01*
X110563000Y-88646000D01*
X110563000Y-84800868D01*
X111941000Y-83422868D01*
X111941000Y-85899159D01*
X111725946Y-86042853D01*
X111404039Y-86524622D01*
X111291000Y-87092907D01*
X111291000Y-87151093D01*
X111404039Y-87719378D01*
X111725946Y-88201147D01*
X112201648Y-88519000D01*
X111725946Y-88836853D01*
X111404039Y-89318622D01*
X111291000Y-89886907D01*
X111291000Y-89945093D01*
X111404039Y-90513378D01*
X111725946Y-90995147D01*
X112201648Y-91313000D01*
X111725946Y-91630853D01*
X111404039Y-92112622D01*
X111291000Y-92680907D01*
X111291000Y-92739093D01*
X111404039Y-93307378D01*
X111725946Y-93789147D01*
X112201648Y-94107000D01*
X111725946Y-94424853D01*
X111404039Y-94906622D01*
X111291000Y-95474907D01*
X111291000Y-95533093D01*
X111404039Y-96101378D01*
X111725946Y-96583147D01*
X112207715Y-96905054D01*
X112776000Y-97018093D01*
X113344285Y-96905054D01*
X113826054Y-96583147D01*
X114046000Y-96253974D01*
X114265946Y-96583147D01*
X114747715Y-96905054D01*
X115316000Y-97018093D01*
X115884285Y-96905054D01*
X116366054Y-96583147D01*
X116586000Y-96253974D01*
X116805946Y-96583147D01*
X117287715Y-96905054D01*
X117856000Y-97018093D01*
X118424285Y-96905054D01*
X118906054Y-96583147D01*
X118935403Y-96539223D01*
X119007673Y-96713698D01*
X119186301Y-96892327D01*
X119419690Y-96989000D01*
X120110250Y-96989000D01*
X120269000Y-96830250D01*
X120269000Y-95631000D01*
X120523000Y-95631000D01*
X120523000Y-96830250D01*
X120681750Y-96989000D01*
X121372310Y-96989000D01*
X121605699Y-96892327D01*
X121784327Y-96713698D01*
X121881000Y-96480309D01*
X121881000Y-95789750D01*
X121722250Y-95631000D01*
X120523000Y-95631000D01*
X120269000Y-95631000D01*
X120249000Y-95631000D01*
X120249000Y-95377000D01*
X120269000Y-95377000D01*
X120269000Y-94177750D01*
X120198250Y-94107000D01*
X120269000Y-94036250D01*
X120269000Y-92837000D01*
X120523000Y-92837000D01*
X120523000Y-94036250D01*
X120593750Y-94107000D01*
X120523000Y-94177750D01*
X120523000Y-95377000D01*
X121722250Y-95377000D01*
X121881000Y-95218250D01*
X121881000Y-94527691D01*
X121784327Y-94294302D01*
X121605699Y-94115673D01*
X121584761Y-94107000D01*
X121605699Y-94098327D01*
X121784327Y-93919698D01*
X121881000Y-93686309D01*
X121881000Y-92995750D01*
X121722250Y-92837000D01*
X120523000Y-92837000D01*
X120269000Y-92837000D01*
X120249000Y-92837000D01*
X120249000Y-92583000D01*
X120269000Y-92583000D01*
X120269000Y-91383750D01*
X120198250Y-91313000D01*
X120269000Y-91242250D01*
X120269000Y-90043000D01*
X120523000Y-90043000D01*
X120523000Y-91242250D01*
X120593750Y-91313000D01*
X120523000Y-91383750D01*
X120523000Y-92583000D01*
X121722250Y-92583000D01*
X121881000Y-92424250D01*
X121881000Y-91733691D01*
X121784327Y-91500302D01*
X121605699Y-91321673D01*
X121584761Y-91313000D01*
X121605699Y-91304327D01*
X121784327Y-91125698D01*
X121881000Y-90892309D01*
X121881000Y-90201750D01*
X121722250Y-90043000D01*
X120523000Y-90043000D01*
X120269000Y-90043000D01*
X120249000Y-90043000D01*
X120249000Y-89789000D01*
X120269000Y-89789000D01*
X120269000Y-88589750D01*
X120198250Y-88519000D01*
X120269000Y-88448250D01*
X120269000Y-87249000D01*
X120523000Y-87249000D01*
X120523000Y-88448250D01*
X120593750Y-88519000D01*
X120523000Y-88589750D01*
X120523000Y-89789000D01*
X121722250Y-89789000D01*
X121881000Y-89630250D01*
X121881000Y-88939691D01*
X121784327Y-88706302D01*
X121605699Y-88527673D01*
X121584761Y-88519000D01*
X121605699Y-88510327D01*
X121784327Y-88331698D01*
X121881000Y-88098309D01*
X121881000Y-87407750D01*
X121722250Y-87249000D01*
X120523000Y-87249000D01*
X120269000Y-87249000D01*
X120249000Y-87249000D01*
X120249000Y-86995000D01*
X120269000Y-86995000D01*
X120269000Y-85795750D01*
X120523000Y-85795750D01*
X120523000Y-86995000D01*
X121722250Y-86995000D01*
X121881000Y-86836250D01*
X121881000Y-86145691D01*
X121784327Y-85912302D01*
X121605699Y-85733673D01*
X121372310Y-85637000D01*
X120681750Y-85637000D01*
X120523000Y-85795750D01*
X120269000Y-85795750D01*
X120110250Y-85637000D01*
X119419690Y-85637000D01*
X119186301Y-85733673D01*
X119007673Y-85912302D01*
X118935403Y-86086777D01*
X118906054Y-86042853D01*
X118424285Y-85720946D01*
X117856000Y-85607907D01*
X117287715Y-85720946D01*
X116805946Y-86042853D01*
X116586000Y-86372026D01*
X116366054Y-86042853D01*
X116151000Y-85899159D01*
X116151000Y-81371868D01*
X119852868Y-77670000D01*
X127762000Y-77670000D01*
X128081541Y-77606439D01*
X128352434Y-77425434D01*
X132007000Y-73770868D01*
X132007000Y-73822132D01*
X123869566Y-81959566D01*
X123688561Y-82230459D01*
X123625000Y-82550000D01*
X123625000Y-94488000D01*
X123688561Y-94807541D01*
X123869566Y-95078434D01*
X124744829Y-95953697D01*
X124468999Y-95839162D01*
X124097033Y-95838838D01*
X123753257Y-95980883D01*
X123490008Y-96243673D01*
X123347362Y-96587201D01*
X123347038Y-96959167D01*
X123489083Y-97302943D01*
X123751873Y-97566192D01*
X123752265Y-97566355D01*
X126862095Y-100676185D01*
X127165431Y-100878867D01*
X127523240Y-100950040D01*
X128396184Y-100950040D01*
X128582167Y-100950202D01*
X128925943Y-100808157D01*
X129189192Y-100545367D01*
X129259575Y-100375867D01*
X129568574Y-100376136D01*
X126084855Y-103859855D01*
X125882173Y-104163191D01*
X125811000Y-104521000D01*
X125811000Y-108959710D01*
X124583242Y-110187468D01*
X124549635Y-110137172D01*
X124317404Y-109982000D01*
X124416130Y-109982000D01*
X124649519Y-109885327D01*
X124828147Y-109706698D01*
X124924820Y-109473309D01*
X124924820Y-108870750D01*
X124766070Y-108712000D01*
X123317000Y-108712000D01*
X123317000Y-108732000D01*
X123063000Y-108732000D01*
X123063000Y-108712000D01*
X121613930Y-108712000D01*
X121455180Y-108870750D01*
X121455180Y-109473309D01*
X121551853Y-109706698D01*
X121730481Y-109885327D01*
X121963870Y-109982000D01*
X122062596Y-109982000D01*
X121830365Y-110137172D01*
X121527533Y-110590391D01*
X121421193Y-111125000D01*
X121527533Y-111659609D01*
X121830365Y-112112828D01*
X122252664Y-112395000D01*
X121830365Y-112677172D01*
X121527533Y-113130391D01*
X121421193Y-113665000D01*
X121527533Y-114199609D01*
X121830365Y-114652828D01*
X122252664Y-114935000D01*
X121830365Y-115217172D01*
X121527533Y-115670391D01*
X121421193Y-116205000D01*
X121527533Y-116739609D01*
X121830365Y-117192828D01*
X122283584Y-117495660D01*
X122818193Y-117602000D01*
X123561807Y-117602000D01*
X124096416Y-117495660D01*
X124549635Y-117192828D01*
X124852467Y-116739609D01*
X124958807Y-116205000D01*
X124852467Y-115670391D01*
X124549635Y-115217172D01*
X124127336Y-114935000D01*
X124549635Y-114652828D01*
X124852467Y-114199609D01*
X124958807Y-113665000D01*
X124852467Y-113130391D01*
X124549635Y-112677172D01*
X124127336Y-112395000D01*
X124549635Y-112112828D01*
X124584934Y-112060000D01*
X124968000Y-112060000D01*
X125325809Y-111988827D01*
X125629145Y-111786145D01*
X127407145Y-110008145D01*
X127609827Y-109704809D01*
X127681000Y-109347000D01*
X127681000Y-106680000D01*
X128025907Y-106680000D01*
X128138946Y-107248285D01*
X128460853Y-107730054D01*
X128790026Y-107950000D01*
X128460853Y-108169946D01*
X128138946Y-108651715D01*
X128025907Y-109220000D01*
X128138946Y-109788285D01*
X128460853Y-110270054D01*
X128790026Y-110490000D01*
X128460853Y-110709946D01*
X128138946Y-111191715D01*
X128025907Y-111760000D01*
X128138946Y-112328285D01*
X128460853Y-112810054D01*
X128502452Y-112837850D01*
X128454683Y-112846838D01*
X128238559Y-112985910D01*
X128093569Y-113198110D01*
X128042560Y-113450000D01*
X128042560Y-115150000D01*
X128086838Y-115385317D01*
X128225910Y-115601441D01*
X128438110Y-115746431D01*
X128690000Y-115797440D01*
X130390000Y-115797440D01*
X130610000Y-115756044D01*
X130610000Y-120863834D01*
X130137378Y-120548039D01*
X129569093Y-120435000D01*
X129510907Y-120435000D01*
X128942622Y-120548039D01*
X128460853Y-120869946D01*
X128138946Y-121351715D01*
X128025907Y-121920000D01*
X128138946Y-122488285D01*
X128460853Y-122970054D01*
X128502452Y-122997850D01*
X128454683Y-123006838D01*
X128238559Y-123145910D01*
X128093569Y-123358110D01*
X128042560Y-123610000D01*
X128042560Y-125310000D01*
X128086838Y-125545317D01*
X128225910Y-125761441D01*
X128438110Y-125906431D01*
X128690000Y-125957440D01*
X130390000Y-125957440D01*
X130625317Y-125913162D01*
X130841441Y-125774090D01*
X130986431Y-125561890D01*
X131037440Y-125310000D01*
X131037440Y-123836308D01*
X132251566Y-125050434D01*
X132522459Y-125231439D01*
X132842000Y-125295000D01*
X133122560Y-125295000D01*
X133122560Y-125310000D01*
X133166838Y-125545317D01*
X133305910Y-125761441D01*
X133518110Y-125906431D01*
X133770000Y-125957440D01*
X135470000Y-125957440D01*
X135705317Y-125913162D01*
X135921441Y-125774090D01*
X136066431Y-125561890D01*
X136117440Y-125310000D01*
X136117440Y-123610000D01*
X136073162Y-123374683D01*
X135934090Y-123158559D01*
X135721890Y-123013569D01*
X135654459Y-122999914D01*
X135699147Y-122970054D01*
X136021054Y-122488285D01*
X136134093Y-121920000D01*
X136021054Y-121351715D01*
X135699147Y-120869946D01*
X135358447Y-120642298D01*
X135501358Y-120575183D01*
X135891645Y-120146924D01*
X136061476Y-119736890D01*
X135940155Y-119507000D01*
X134747000Y-119507000D01*
X134747000Y-119527000D01*
X134493000Y-119527000D01*
X134493000Y-119507000D01*
X133299845Y-119507000D01*
X133178524Y-119736890D01*
X133348355Y-120146924D01*
X133738642Y-120575183D01*
X133881553Y-120642298D01*
X133540853Y-120869946D01*
X133218946Y-121351715D01*
X133105907Y-121920000D01*
X133218946Y-122488285D01*
X133540853Y-122970054D01*
X133582452Y-122997850D01*
X133534683Y-123006838D01*
X133318559Y-123145910D01*
X133173569Y-123358110D01*
X133131032Y-123568164D01*
X132280000Y-122717132D01*
X132280000Y-110744000D01*
X132216439Y-110424459D01*
X132035434Y-110153566D01*
X131042230Y-109160362D01*
X130941054Y-108651715D01*
X130619147Y-108169946D01*
X130289974Y-107950000D01*
X130619147Y-107730054D01*
X130941054Y-107248285D01*
X131054093Y-106680000D01*
X130941054Y-106111715D01*
X130619147Y-105629946D01*
X130137378Y-105308039D01*
X129569093Y-105195000D01*
X129510907Y-105195000D01*
X128942622Y-105308039D01*
X128460853Y-105629946D01*
X128138946Y-106111715D01*
X128025907Y-106680000D01*
X127681000Y-106680000D01*
X127681000Y-104908290D01*
X132594290Y-99995000D01*
X133463977Y-99995000D01*
X133540853Y-100110054D01*
X133881553Y-100337702D01*
X133738642Y-100404817D01*
X133348355Y-100833076D01*
X133178524Y-101243110D01*
X133299845Y-101473000D01*
X134493000Y-101473000D01*
X134493000Y-101453000D01*
X134747000Y-101453000D01*
X134747000Y-101473000D01*
X135940155Y-101473000D01*
X136061476Y-101243110D01*
X135891645Y-100833076D01*
X135501358Y-100404817D01*
X135358447Y-100337702D01*
X135574230Y-100193520D01*
X136479000Y-101098290D01*
X136479000Y-108653436D01*
X136203799Y-108539162D01*
X135831833Y-108538838D01*
X135589422Y-108639000D01*
X133822868Y-108639000D01*
X133296000Y-108112132D01*
X133296000Y-107966040D01*
X133305910Y-107981441D01*
X133518110Y-108126431D01*
X133770000Y-108177440D01*
X135470000Y-108177440D01*
X135705317Y-108133162D01*
X135921441Y-107994090D01*
X136066431Y-107781890D01*
X136117440Y-107530000D01*
X136117440Y-105830000D01*
X136073162Y-105594683D01*
X135934090Y-105378559D01*
X135721890Y-105233569D01*
X135654459Y-105219914D01*
X135699147Y-105190054D01*
X136021054Y-104708285D01*
X136134093Y-104140000D01*
X136021054Y-103571715D01*
X135699147Y-103089946D01*
X135358447Y-102862298D01*
X135501358Y-102795183D01*
X135891645Y-102366924D01*
X136061476Y-101956890D01*
X135940155Y-101727000D01*
X134747000Y-101727000D01*
X134747000Y-101747000D01*
X134493000Y-101747000D01*
X134493000Y-101727000D01*
X133299845Y-101727000D01*
X133178524Y-101956890D01*
X133348355Y-102366924D01*
X133738642Y-102795183D01*
X133881553Y-102862298D01*
X133540853Y-103089946D01*
X133296000Y-103456395D01*
X133296000Y-102997000D01*
X133265130Y-102841807D01*
X133232440Y-102677460D01*
X133051434Y-102406566D01*
X132591535Y-101946667D01*
X132492117Y-101706057D01*
X132229327Y-101442808D01*
X131885799Y-101300162D01*
X131513833Y-101299838D01*
X131170057Y-101441883D01*
X130906808Y-101704673D01*
X130764162Y-102048201D01*
X130763838Y-102420167D01*
X130905883Y-102763943D01*
X131168673Y-103027192D01*
X131410910Y-103127778D01*
X131626000Y-103342868D01*
X131626000Y-108458000D01*
X131689561Y-108777541D01*
X131771693Y-108900460D01*
X131870566Y-109048434D01*
X132886566Y-110064434D01*
X133157459Y-110245439D01*
X133477000Y-110309000D01*
X134419978Y-110309000D01*
X134022622Y-110388039D01*
X133540853Y-110709946D01*
X133218946Y-111191715D01*
X133105907Y-111760000D01*
X133218946Y-112328285D01*
X133540853Y-112810054D01*
X133870026Y-113030000D01*
X133540853Y-113249946D01*
X133218946Y-113731715D01*
X133105907Y-114300000D01*
X133218946Y-114868285D01*
X133540853Y-115350054D01*
X133870026Y-115570000D01*
X133540853Y-115789946D01*
X133218946Y-116271715D01*
X133105907Y-116840000D01*
X133218946Y-117408285D01*
X133540853Y-117890054D01*
X133881553Y-118117702D01*
X133738642Y-118184817D01*
X133348355Y-118613076D01*
X133178524Y-119023110D01*
X133299845Y-119253000D01*
X134493000Y-119253000D01*
X134493000Y-119233000D01*
X134747000Y-119233000D01*
X134747000Y-119253000D01*
X135940155Y-119253000D01*
X136061476Y-119023110D01*
X135891645Y-118613076D01*
X135501358Y-118184817D01*
X135358447Y-118117702D01*
X135491199Y-118029000D01*
X136271000Y-118029000D01*
X136628809Y-117957827D01*
X136932145Y-117755145D01*
X138075145Y-116612145D01*
X138277827Y-116308809D01*
X138349000Y-115951000D01*
X138349000Y-105239868D01*
X142411566Y-109302434D01*
X142682459Y-109483439D01*
X143002000Y-109547000D01*
X143336766Y-109547000D01*
X143577201Y-109646838D01*
X143945000Y-109647158D01*
X143945000Y-110546813D01*
X143700853Y-110709946D01*
X143378946Y-111191715D01*
X143265907Y-111760000D01*
X143378946Y-112328285D01*
X143700853Y-112810054D01*
X144030026Y-113030000D01*
X143700853Y-113249946D01*
X143378946Y-113731715D01*
X143265907Y-114300000D01*
X143378946Y-114868285D01*
X143700853Y-115350054D01*
X144030026Y-115570000D01*
X143700853Y-115789946D01*
X143378946Y-116271715D01*
X143265907Y-116840000D01*
X143378946Y-117408285D01*
X143700853Y-117890054D01*
X144041553Y-118117702D01*
X143898642Y-118184817D01*
X143508355Y-118613076D01*
X143338524Y-119023110D01*
X143459845Y-119253000D01*
X144653000Y-119253000D01*
X144653000Y-119233000D01*
X144907000Y-119233000D01*
X144907000Y-119253000D01*
X146100155Y-119253000D01*
X146221476Y-119023110D01*
X146051645Y-118613076D01*
X145661358Y-118184817D01*
X145518447Y-118117702D01*
X145859147Y-117890054D01*
X146181054Y-117408285D01*
X146294093Y-116840000D01*
X146181054Y-116271715D01*
X145859147Y-115789946D01*
X145529974Y-115570000D01*
X145859147Y-115350054D01*
X146181054Y-114868285D01*
X146294093Y-114300000D01*
X146181054Y-113731715D01*
X146117007Y-113635861D01*
X147021434Y-112731434D01*
X147202440Y-112460540D01*
X147266000Y-112141000D01*
X147266000Y-109184868D01*
X148545434Y-107905434D01*
X148583784Y-107848039D01*
X148721736Y-107641579D01*
X148780853Y-107730054D01*
X149110026Y-107950000D01*
X148780853Y-108169946D01*
X148458946Y-108651715D01*
X148345907Y-109220000D01*
X148458946Y-109788285D01*
X148780853Y-110270054D01*
X148822452Y-110297850D01*
X148774683Y-110306838D01*
X148558559Y-110445910D01*
X148413569Y-110658110D01*
X148362560Y-110910000D01*
X148362560Y-112610000D01*
X148406838Y-112845317D01*
X148545910Y-113061441D01*
X148758110Y-113206431D01*
X149010000Y-113257440D01*
X150710000Y-113257440D01*
X150945317Y-113213162D01*
X151161441Y-113074090D01*
X151306431Y-112861890D01*
X151357440Y-112610000D01*
X151357440Y-110910000D01*
X151313162Y-110674683D01*
X151174090Y-110458559D01*
X150961890Y-110313569D01*
X150894459Y-110299914D01*
X150939147Y-110270054D01*
X151261054Y-109788285D01*
X151348383Y-109349251D01*
X151438000Y-109438868D01*
X151438000Y-115351132D01*
X150279600Y-116509532D01*
X150187000Y-116285422D01*
X150187000Y-115189000D01*
X150123439Y-114869459D01*
X149942434Y-114598566D01*
X148974535Y-113630667D01*
X148875117Y-113390057D01*
X148612327Y-113126808D01*
X148268799Y-112984162D01*
X147896833Y-112983838D01*
X147553057Y-113125883D01*
X147289808Y-113388673D01*
X147147162Y-113732201D01*
X147146838Y-114104167D01*
X147288883Y-114447943D01*
X147551673Y-114711192D01*
X147793910Y-114811778D01*
X148517000Y-115534868D01*
X148517000Y-116285766D01*
X148417162Y-116526201D01*
X148416838Y-116898167D01*
X148558883Y-117241943D01*
X148821673Y-117505192D01*
X149148308Y-117640824D01*
X145883195Y-120905937D01*
X145859147Y-120869946D01*
X145518447Y-120642298D01*
X145661358Y-120575183D01*
X146051645Y-120146924D01*
X146221476Y-119736890D01*
X146100155Y-119507000D01*
X144907000Y-119507000D01*
X144907000Y-119527000D01*
X144653000Y-119527000D01*
X144653000Y-119507000D01*
X143459845Y-119507000D01*
X143338524Y-119736890D01*
X143508355Y-120146924D01*
X143898642Y-120575183D01*
X144041553Y-120642298D01*
X143700853Y-120869946D01*
X143378946Y-121351715D01*
X143265907Y-121920000D01*
X143378946Y-122488285D01*
X143700853Y-122970054D01*
X143742452Y-122997850D01*
X143694683Y-123006838D01*
X143478559Y-123145910D01*
X143333569Y-123358110D01*
X143282560Y-123610000D01*
X143282560Y-125310000D01*
X143326838Y-125545317D01*
X143465910Y-125761441D01*
X143678110Y-125906431D01*
X143930000Y-125957440D01*
X145630000Y-125957440D01*
X145865317Y-125913162D01*
X146081441Y-125774090D01*
X146226431Y-125561890D01*
X146277440Y-125310000D01*
X146277440Y-123610000D01*
X146233162Y-123374683D01*
X146094090Y-123158559D01*
X145881890Y-123013569D01*
X145814459Y-122999914D01*
X145859147Y-122970054D01*
X146002841Y-122755000D01*
X146050000Y-122755000D01*
X146369541Y-122691439D01*
X146640434Y-122510434D01*
X146810532Y-122340336D01*
X146907883Y-122575943D01*
X147170673Y-122839192D01*
X147171065Y-122839355D01*
X149833855Y-125502145D01*
X150137191Y-125704827D01*
X150495000Y-125776000D01*
X151257000Y-125776000D01*
X151614809Y-125704827D01*
X151918145Y-125502145D01*
X153759828Y-123660462D01*
X170204422Y-123660462D01*
X170711076Y-124886658D01*
X171648407Y-125825627D01*
X172873717Y-126334420D01*
X174200462Y-126335578D01*
X175426658Y-125828924D01*
X176365627Y-124891593D01*
X176874420Y-123666283D01*
X176875578Y-122339538D01*
X176368924Y-121113342D01*
X175431593Y-120174373D01*
X174206283Y-119665580D01*
X172879538Y-119664422D01*
X171653342Y-120171076D01*
X170714373Y-121108407D01*
X170205580Y-122333717D01*
X170204422Y-123660462D01*
X153759828Y-123660462D01*
X155855145Y-121565145D01*
X156057827Y-121261809D01*
X156129000Y-120904000D01*
X156129000Y-119570089D01*
X161787517Y-119570089D01*
X161916725Y-119862859D01*
X162616883Y-120131071D01*
X163366384Y-120110928D01*
X163965275Y-119862859D01*
X164094483Y-119570089D01*
X162941000Y-118416605D01*
X161787517Y-119570089D01*
X156129000Y-119570089D01*
X156129000Y-117912883D01*
X161046929Y-117912883D01*
X161067072Y-118662384D01*
X161315141Y-119261275D01*
X161607911Y-119390483D01*
X162761395Y-118237000D01*
X163120605Y-118237000D01*
X164274089Y-119390483D01*
X164566859Y-119261275D01*
X164835071Y-118561117D01*
X164814928Y-117811616D01*
X164566859Y-117212725D01*
X164274089Y-117083517D01*
X163120605Y-118237000D01*
X162761395Y-118237000D01*
X161607911Y-117083517D01*
X161315141Y-117212725D01*
X161046929Y-117912883D01*
X156129000Y-117912883D01*
X156129000Y-116903911D01*
X161787517Y-116903911D01*
X162941000Y-118057395D01*
X164094483Y-116903911D01*
X163965275Y-116611141D01*
X163265117Y-116342929D01*
X162515616Y-116363072D01*
X161916725Y-116611141D01*
X161787517Y-116903911D01*
X156129000Y-116903911D01*
X156129000Y-116586005D01*
X156129001Y-116586000D01*
X156069611Y-116287434D01*
X156057827Y-116228191D01*
X155855145Y-115924855D01*
X154478000Y-114547710D01*
X154478000Y-109220000D01*
X154434213Y-108999870D01*
X154566642Y-109145183D01*
X155091108Y-109391486D01*
X155321000Y-109270819D01*
X155321000Y-108077000D01*
X155575000Y-108077000D01*
X155575000Y-109270819D01*
X155804892Y-109391486D01*
X156329358Y-109145183D01*
X156719645Y-108716924D01*
X156889476Y-108306890D01*
X156768155Y-108077000D01*
X155575000Y-108077000D01*
X155321000Y-108077000D01*
X154127845Y-108077000D01*
X154006524Y-108306890D01*
X154044947Y-108399657D01*
X153716000Y-108070710D01*
X153716000Y-102870000D01*
X153933907Y-102870000D01*
X154046946Y-103438285D01*
X154368853Y-103920054D01*
X154698026Y-104140000D01*
X154368853Y-104359946D01*
X154046946Y-104841715D01*
X153933907Y-105410000D01*
X154046946Y-105978285D01*
X154368853Y-106460054D01*
X154709553Y-106687702D01*
X154566642Y-106754817D01*
X154176355Y-107183076D01*
X154006524Y-107593110D01*
X154127845Y-107823000D01*
X155321000Y-107823000D01*
X155321000Y-107803000D01*
X155575000Y-107803000D01*
X155575000Y-107823000D01*
X156768155Y-107823000D01*
X156889476Y-107593110D01*
X156719645Y-107183076D01*
X156329358Y-106754817D01*
X156186447Y-106687702D01*
X156527147Y-106460054D01*
X156849054Y-105978285D01*
X156962093Y-105410000D01*
X156849054Y-104841715D01*
X156527147Y-104359946D01*
X156197974Y-104140000D01*
X156527147Y-103920054D01*
X156849054Y-103438285D01*
X156962093Y-102870000D01*
X156849054Y-102301715D01*
X156527147Y-101819946D01*
X156485548Y-101792150D01*
X156533317Y-101783162D01*
X156749441Y-101644090D01*
X156894431Y-101431890D01*
X156945440Y-101180000D01*
X156945440Y-99480000D01*
X156901162Y-99244683D01*
X156762090Y-99028559D01*
X156549890Y-98883569D01*
X156298000Y-98832560D01*
X154598000Y-98832560D01*
X154362683Y-98876838D01*
X154146559Y-99015910D01*
X154001569Y-99228110D01*
X153950560Y-99480000D01*
X153950560Y-101180000D01*
X153994838Y-101415317D01*
X154133910Y-101631441D01*
X154346110Y-101776431D01*
X154413541Y-101790086D01*
X154368853Y-101819946D01*
X154046946Y-102301715D01*
X153933907Y-102870000D01*
X153716000Y-102870000D01*
X153716000Y-102108000D01*
X153644827Y-101750191D01*
X153442145Y-101446855D01*
X153442142Y-101446853D01*
X152934145Y-100938855D01*
X152630809Y-100736173D01*
X152273000Y-100665000D01*
X151341446Y-100665000D01*
X151313162Y-100514683D01*
X151174090Y-100298559D01*
X150961890Y-100153569D01*
X150894459Y-100139914D01*
X150939147Y-100110054D01*
X151261054Y-99628285D01*
X151374093Y-99060000D01*
X151261054Y-98491715D01*
X150939147Y-98009946D01*
X150609974Y-97790000D01*
X150939147Y-97570054D01*
X151261054Y-97088285D01*
X151374093Y-96520000D01*
X151261054Y-95951715D01*
X150939147Y-95469946D01*
X150598447Y-95242298D01*
X150741358Y-95175183D01*
X151131645Y-94746924D01*
X151301476Y-94336890D01*
X151180155Y-94107000D01*
X149987000Y-94107000D01*
X149987000Y-94127000D01*
X149733000Y-94127000D01*
X149733000Y-94107000D01*
X148539845Y-94107000D01*
X148418524Y-94336890D01*
X148588355Y-94746924D01*
X148978642Y-95175183D01*
X149121553Y-95242298D01*
X148780853Y-95469946D01*
X148637159Y-95685000D01*
X148590000Y-95685000D01*
X148270459Y-95748561D01*
X148055238Y-95892367D01*
X147999566Y-95929566D01*
X147747000Y-96182132D01*
X147747000Y-93218000D01*
X147705626Y-93010000D01*
X147827184Y-93010000D01*
X148013167Y-93010162D01*
X148013559Y-93010000D01*
X148773425Y-93010000D01*
X148588355Y-93213076D01*
X148418524Y-93623110D01*
X148539845Y-93853000D01*
X149733000Y-93853000D01*
X149733000Y-93833000D01*
X149987000Y-93833000D01*
X149987000Y-93853000D01*
X151180155Y-93853000D01*
X151301476Y-93623110D01*
X151131645Y-93213076D01*
X150946575Y-93010000D01*
X151764184Y-93010000D01*
X151950167Y-93010162D01*
X152293943Y-92868117D01*
X152557192Y-92605327D01*
X152699838Y-92261799D01*
X152700162Y-91889833D01*
X152700000Y-91889441D01*
X152700000Y-75057000D01*
X152628827Y-74699191D01*
X152426145Y-74395855D01*
X151357440Y-73327150D01*
X151357440Y-72810000D01*
X151313162Y-72574683D01*
X151174090Y-72358559D01*
X150961890Y-72213569D01*
X150894459Y-72199914D01*
X150939147Y-72170054D01*
X151261054Y-71688285D01*
X151374093Y-71120000D01*
X151261054Y-70551715D01*
X150939147Y-70069946D01*
X150598447Y-69842298D01*
X150741358Y-69775183D01*
X151131645Y-69346924D01*
X151301476Y-68936890D01*
X151180155Y-68707000D01*
X149987000Y-68707000D01*
X149987000Y-68727000D01*
X149733000Y-68727000D01*
X149733000Y-68707000D01*
X148539845Y-68707000D01*
X148418524Y-68936890D01*
X148588355Y-69346924D01*
X148978642Y-69775183D01*
X149121553Y-69842298D01*
X148780853Y-70069946D01*
X148663047Y-70246256D01*
X148613191Y-70256173D01*
X148337424Y-70440434D01*
X148309855Y-70458855D01*
X146658855Y-72109855D01*
X146610502Y-72182221D01*
X146588762Y-72066683D01*
X146449690Y-71850559D01*
X146237490Y-71705569D01*
X146170059Y-71691914D01*
X146214747Y-71662054D01*
X146536654Y-71180285D01*
X146649693Y-70612000D01*
X146536654Y-70043715D01*
X146214747Y-69561946D01*
X145874047Y-69334298D01*
X146016958Y-69267183D01*
X146407245Y-68838924D01*
X146577076Y-68428890D01*
X146468479Y-68223110D01*
X148418524Y-68223110D01*
X148539845Y-68453000D01*
X149733000Y-68453000D01*
X149733000Y-67259181D01*
X149987000Y-67259181D01*
X149987000Y-68453000D01*
X151180155Y-68453000D01*
X151301476Y-68223110D01*
X151131645Y-67813076D01*
X150741358Y-67384817D01*
X150216892Y-67138514D01*
X149987000Y-67259181D01*
X149733000Y-67259181D01*
X149503108Y-67138514D01*
X148978642Y-67384817D01*
X148588355Y-67813076D01*
X148418524Y-68223110D01*
X146468479Y-68223110D01*
X146455755Y-68199000D01*
X145262600Y-68199000D01*
X145262600Y-68219000D01*
X145008600Y-68219000D01*
X145008600Y-68199000D01*
X143815445Y-68199000D01*
X143694124Y-68428890D01*
X143863955Y-68838924D01*
X144254242Y-69267183D01*
X144397153Y-69334298D01*
X144056453Y-69561946D01*
X143734546Y-70043715D01*
X143621507Y-70612000D01*
X143734546Y-71180285D01*
X144056453Y-71662054D01*
X144098052Y-71689850D01*
X144050283Y-71698838D01*
X143834159Y-71837910D01*
X143689169Y-72050110D01*
X143638160Y-72302000D01*
X143638160Y-73333459D01*
X143593880Y-73110849D01*
X143282811Y-72645302D01*
X142900725Y-72390000D01*
X143282811Y-72134698D01*
X143593880Y-71669151D01*
X143703113Y-71120000D01*
X143593880Y-70570849D01*
X143282811Y-70105302D01*
X142817264Y-69794233D01*
X142268113Y-69685000D01*
X142211887Y-69685000D01*
X141662736Y-69794233D01*
X141197189Y-70105302D01*
X140886120Y-70570849D01*
X140776887Y-71120000D01*
X140886120Y-71669151D01*
X141197189Y-72134698D01*
X141579275Y-72390000D01*
X141197189Y-72645302D01*
X140886120Y-73110849D01*
X140776887Y-73660000D01*
X140886120Y-74209151D01*
X141197189Y-74674698D01*
X141601703Y-74944986D01*
X141384866Y-75047611D01*
X141008959Y-75462577D01*
X140848096Y-75850961D01*
X140970085Y-76073000D01*
X142113000Y-76073000D01*
X142113000Y-76053000D01*
X142367000Y-76053000D01*
X142367000Y-76073000D01*
X143509915Y-76073000D01*
X143631904Y-75850961D01*
X143471041Y-75462577D01*
X143095134Y-75047611D01*
X142878297Y-74944986D01*
X143282811Y-74674698D01*
X143593880Y-74209151D01*
X143638160Y-73986541D01*
X143638160Y-74002000D01*
X143682438Y-74237317D01*
X143821510Y-74453441D01*
X144033710Y-74598431D01*
X144285600Y-74649440D01*
X145985600Y-74649440D01*
X146220917Y-74605162D01*
X146385000Y-74499577D01*
X146385000Y-74718554D01*
X146234683Y-74746838D01*
X146018559Y-74885910D01*
X145873569Y-75098110D01*
X145822560Y-75350000D01*
X145822560Y-76375150D01*
X145007855Y-77189855D01*
X144805173Y-77493191D01*
X144734000Y-77851000D01*
X144734000Y-79672132D01*
X143678592Y-78616724D01*
X143593880Y-78190849D01*
X143282811Y-77725302D01*
X142878297Y-77455014D01*
X143095134Y-77352389D01*
X143471041Y-76937423D01*
X143631904Y-76549039D01*
X143509915Y-76327000D01*
X142367000Y-76327000D01*
X142367000Y-76347000D01*
X142113000Y-76347000D01*
X142113000Y-76327000D01*
X140970085Y-76327000D01*
X140848096Y-76549039D01*
X141008959Y-76937423D01*
X141384866Y-77352389D01*
X141601703Y-77455014D01*
X141197189Y-77725302D01*
X140886120Y-78190849D01*
X140776887Y-78740000D01*
X140886120Y-79289151D01*
X141197189Y-79754698D01*
X141579275Y-80010000D01*
X141197189Y-80265302D01*
X140886120Y-80730849D01*
X140776887Y-81280000D01*
X140845519Y-81625037D01*
X140665602Y-81445120D01*
X140665642Y-81399633D01*
X140523597Y-81055857D01*
X140260807Y-80792608D01*
X139917279Y-80649962D01*
X139545313Y-80649638D01*
X139201537Y-80791683D01*
X138938288Y-81054473D01*
X138795642Y-81398001D01*
X138795318Y-81769967D01*
X138937363Y-82113743D01*
X139200153Y-82376992D01*
X139543681Y-82519638D01*
X139590557Y-82519679D01*
X140088080Y-83017202D01*
X140088080Y-84383880D01*
X140145932Y-84674719D01*
X140310679Y-84921281D01*
X140914398Y-85525000D01*
X139593320Y-85525000D01*
X139273779Y-85588561D01*
X139002886Y-85769566D01*
X138337968Y-86434484D01*
X138156963Y-86705377D01*
X138093402Y-87024918D01*
X138093402Y-95230242D01*
X138156963Y-95549783D01*
X138289782Y-95748561D01*
X138337968Y-95820676D01*
X139774288Y-97256996D01*
X139817561Y-97474541D01*
X139946693Y-97667800D01*
X139919650Y-97667800D01*
X138293876Y-96042026D01*
X138162767Y-95910688D01*
X137819239Y-95768042D01*
X137447273Y-95767718D01*
X137385400Y-95793283D01*
X137385400Y-68366640D01*
X137321839Y-68047099D01*
X137217537Y-67891000D01*
X143129000Y-67891000D01*
X143448541Y-67827439D01*
X143719434Y-67646434D01*
X143724785Y-67641083D01*
X143694124Y-67715110D01*
X143815445Y-67945000D01*
X145008600Y-67945000D01*
X145008600Y-66751181D01*
X145262600Y-66751181D01*
X145262600Y-67945000D01*
X146455755Y-67945000D01*
X146577076Y-67715110D01*
X146407245Y-67305076D01*
X146016958Y-66876817D01*
X145492492Y-66630514D01*
X145262600Y-66751181D01*
X145008600Y-66751181D01*
X144778708Y-66630514D01*
X144696966Y-66668902D01*
X145521906Y-65843962D01*
X145642391Y-65924467D01*
X146177000Y-66030807D01*
X146711609Y-65924467D01*
X147164828Y-65621635D01*
X147455647Y-65186394D01*
X147474941Y-65251761D01*
X147818974Y-65677450D01*
X148299723Y-65939080D01*
X148373930Y-65954040D01*
X148590000Y-65831540D01*
X148590000Y-64389000D01*
X148570000Y-64389000D01*
X148570000Y-64135000D01*
X148590000Y-64135000D01*
X148590000Y-62692460D01*
X148844000Y-62692460D01*
X148844000Y-64135000D01*
X148864000Y-64135000D01*
X148864000Y-64389000D01*
X148844000Y-64389000D01*
X148844000Y-65831540D01*
X149060070Y-65954040D01*
X149134277Y-65939080D01*
X149615026Y-65677450D01*
X149851819Y-65384454D01*
X149891838Y-65597137D01*
X150030910Y-65813261D01*
X150243110Y-65958251D01*
X150495000Y-66009260D01*
X152019000Y-66009260D01*
X152254317Y-65964982D01*
X152470441Y-65825910D01*
X152615431Y-65613710D01*
X152666440Y-65361820D01*
X152666440Y-63162180D01*
X152622162Y-62926863D01*
X152483090Y-62710739D01*
X152270890Y-62565749D01*
X152019000Y-62514740D01*
X150495000Y-62514740D01*
X150259683Y-62559018D01*
X150043559Y-62698090D01*
X149898569Y-62910290D01*
X149852079Y-63139867D01*
X149615026Y-62846550D01*
X149134277Y-62584920D01*
X149060070Y-62569960D01*
X148844000Y-62692460D01*
X148590000Y-62692460D01*
X148373930Y-62569960D01*
X148299723Y-62584920D01*
X147818974Y-62846550D01*
X147474941Y-63272239D01*
X147455647Y-63337606D01*
X147164828Y-62902365D01*
X146711609Y-62599533D01*
X146177000Y-62493193D01*
X145642391Y-62599533D01*
X145189172Y-62902365D01*
X144907000Y-63324664D01*
X144624828Y-62902365D01*
X144171609Y-62599533D01*
X143637000Y-62493193D01*
X143102391Y-62599533D01*
X142649172Y-62902365D01*
X142367000Y-63324664D01*
X142084828Y-62902365D01*
X141631609Y-62599533D01*
X141097000Y-62493193D01*
X140562391Y-62599533D01*
X140109172Y-62902365D01*
X139827000Y-63324664D01*
X139544828Y-62902365D01*
X139091609Y-62599533D01*
X138557000Y-62493193D01*
X138022391Y-62599533D01*
X137569172Y-62902365D01*
X137287000Y-63324664D01*
X137004828Y-62902365D01*
X136551609Y-62599533D01*
X136017000Y-62493193D01*
X135482391Y-62599533D01*
X135029172Y-62902365D01*
X134747000Y-63324664D01*
X134464828Y-62902365D01*
X134011609Y-62599533D01*
X133477000Y-62493193D01*
X132942391Y-62599533D01*
X132489172Y-62902365D01*
X132186340Y-63355584D01*
X132080000Y-63890193D01*
X132080000Y-64633807D01*
X132186340Y-65168416D01*
X132315043Y-65361033D01*
X132141459Y-65395561D01*
X131870566Y-65576566D01*
X130967694Y-66479438D01*
X131054093Y-66045080D01*
X130941054Y-65476795D01*
X130619147Y-64995026D01*
X130289974Y-64775080D01*
X130619147Y-64555134D01*
X130941054Y-64073365D01*
X131054093Y-63505080D01*
X130941054Y-62936795D01*
X130619147Y-62455026D01*
X130137378Y-62133119D01*
X129569093Y-62020080D01*
X129510907Y-62020080D01*
X128942622Y-62133119D01*
X128460853Y-62455026D01*
X128138946Y-62936795D01*
X128025907Y-63505080D01*
X128138946Y-64073365D01*
X128460853Y-64555134D01*
X128790026Y-64775080D01*
X128460853Y-64995026D01*
X128138946Y-65476795D01*
X128025907Y-66045080D01*
X128138946Y-66613365D01*
X128460853Y-67095134D01*
X128790026Y-67315080D01*
X128460853Y-67535026D01*
X128138946Y-68016795D01*
X128025907Y-68585080D01*
X128138946Y-69153365D01*
X128460853Y-69635134D01*
X128502452Y-69662930D01*
X128454683Y-69671918D01*
X128238559Y-69810990D01*
X128093569Y-70023190D01*
X128042560Y-70275080D01*
X128042560Y-71975080D01*
X128086838Y-72210397D01*
X128225910Y-72426521D01*
X128438110Y-72571511D01*
X128538327Y-72591805D01*
X126781132Y-74349000D01*
X119425843Y-74349000D01*
X119426162Y-73982833D01*
X119284117Y-73639057D01*
X119021327Y-73375808D01*
X118677799Y-73233162D01*
X118305833Y-73232838D01*
X117962057Y-73374883D01*
X117698808Y-73637673D01*
X117598222Y-73879910D01*
X116772994Y-74705138D01*
X116718717Y-74573777D01*
X116455927Y-74310528D01*
X116112399Y-74167882D01*
X115740433Y-74167558D01*
X115396657Y-74309603D01*
X115133408Y-74572393D01*
X115118816Y-74607534D01*
X109295746Y-80430604D01*
X109164408Y-80561713D01*
X109092868Y-80734000D01*
X107905434Y-79546566D01*
X107852863Y-79511439D01*
X107634541Y-79365561D01*
X107315000Y-79302000D01*
X107215058Y-79302000D01*
X107177894Y-79212057D01*
X106718363Y-78751722D01*
X106117648Y-78502284D01*
X105467205Y-78501716D01*
X104866057Y-78750106D01*
X104405722Y-79209637D01*
X104156284Y-79810352D01*
X104155716Y-80460795D01*
X102914893Y-80460795D01*
X102936908Y-80401539D01*
X102912856Y-79751540D01*
X102710387Y-79262736D01*
X102443532Y-79164073D01*
X101470605Y-80137000D01*
X101111395Y-80137000D01*
X100138468Y-79164073D01*
X99871613Y-79262736D01*
X99645092Y-79872461D01*
X98055500Y-79872461D01*
X98055500Y-78984468D01*
X100318073Y-78984468D01*
X101291000Y-79957395D01*
X102263927Y-78984468D01*
X102165264Y-78717613D01*
X101555539Y-78491092D01*
X100905540Y-78515144D01*
X100416736Y-78717613D01*
X100318073Y-78984468D01*
X98055500Y-78984468D01*
X98055500Y-75701193D01*
X98806000Y-75701193D01*
X98806000Y-76444807D01*
X98912340Y-76979416D01*
X99215172Y-77432635D01*
X99668391Y-77735467D01*
X100203000Y-77841807D01*
X100737609Y-77735467D01*
X101190828Y-77432635D01*
X101473000Y-77010336D01*
X101755172Y-77432635D01*
X102208391Y-77735467D01*
X102743000Y-77841807D01*
X103277609Y-77735467D01*
X103730828Y-77432635D01*
X104013000Y-77010336D01*
X104295172Y-77432635D01*
X104748391Y-77735467D01*
X105283000Y-77841807D01*
X105817609Y-77735467D01*
X106270828Y-77432635D01*
X106561647Y-76997394D01*
X106580941Y-77062761D01*
X106924974Y-77488450D01*
X107405723Y-77750080D01*
X107479930Y-77765040D01*
X107696000Y-77642540D01*
X107696000Y-76200000D01*
X107676000Y-76200000D01*
X107676000Y-75946000D01*
X107696000Y-75946000D01*
X107696000Y-74503460D01*
X107950000Y-74503460D01*
X107950000Y-75946000D01*
X107970000Y-75946000D01*
X107970000Y-76200000D01*
X107950000Y-76200000D01*
X107950000Y-77642540D01*
X108166070Y-77765040D01*
X108240277Y-77750080D01*
X108721026Y-77488450D01*
X108957819Y-77195454D01*
X108997838Y-77408137D01*
X109136910Y-77624261D01*
X109349110Y-77769251D01*
X109601000Y-77820260D01*
X111125000Y-77820260D01*
X111360317Y-77775982D01*
X111576441Y-77636910D01*
X111721431Y-77424710D01*
X111772440Y-77172820D01*
X111772440Y-74973180D01*
X111728162Y-74737863D01*
X111589090Y-74521739D01*
X111376890Y-74376749D01*
X111125000Y-74325740D01*
X109601000Y-74325740D01*
X109365683Y-74370018D01*
X109149559Y-74509090D01*
X109004569Y-74721290D01*
X108958079Y-74950867D01*
X108721026Y-74657550D01*
X108240277Y-74395920D01*
X108166070Y-74380960D01*
X107950000Y-74503460D01*
X107696000Y-74503460D01*
X107479930Y-74380960D01*
X107405723Y-74395920D01*
X106924974Y-74657550D01*
X106580941Y-75083239D01*
X106561647Y-75148606D01*
X106270828Y-74713365D01*
X105817609Y-74410533D01*
X105283000Y-74304193D01*
X104748391Y-74410533D01*
X104295172Y-74713365D01*
X104013000Y-75135664D01*
X103730828Y-74713365D01*
X103277609Y-74410533D01*
X102743000Y-74304193D01*
X102208391Y-74410533D01*
X101755172Y-74713365D01*
X101473000Y-75135664D01*
X101190828Y-74713365D01*
X100737609Y-74410533D01*
X100203000Y-74304193D01*
X99668391Y-74410533D01*
X99215172Y-74713365D01*
X98912340Y-75166584D01*
X98806000Y-75701193D01*
X98055500Y-75701193D01*
X98055500Y-74081092D01*
X99100092Y-73036500D01*
X118237000Y-73036500D01*
X118508705Y-72982454D01*
X118739046Y-72828546D01*
X120580546Y-70987046D01*
X120734454Y-70756705D01*
X120788500Y-70485000D01*
X120788500Y-65660462D01*
X121204422Y-65660462D01*
X121711076Y-66886658D01*
X122648407Y-67825627D01*
X123873717Y-68334420D01*
X125200462Y-68335578D01*
X126426658Y-67828924D01*
X127365627Y-66891593D01*
X127874420Y-65666283D01*
X127875578Y-64339538D01*
X127368924Y-63113342D01*
X126431593Y-62174373D01*
X125206283Y-61665580D01*
X123879538Y-61664422D01*
X122653342Y-62171076D01*
X121714373Y-63108407D01*
X121205580Y-64333717D01*
X121204422Y-65660462D01*
X120788500Y-65660462D01*
X120788500Y-63222592D01*
X122785592Y-61225500D01*
X151597908Y-61225500D01*
X153531500Y-63159092D01*
X153531500Y-63159092D01*
G37*
X153531500Y-63159092D02*
X153531500Y-95186500D01*
X153585546Y-95458205D01*
X153739454Y-95688546D01*
X156152454Y-98101546D01*
X156382795Y-98255454D01*
X156654500Y-98309500D01*
X164424908Y-98309500D01*
X166485500Y-100370092D01*
X166485500Y-116459000D01*
X166539546Y-116730705D01*
X166693454Y-116961046D01*
X168280954Y-118548546D01*
X168511295Y-118702454D01*
X168783000Y-118756500D01*
X176426408Y-118756500D01*
X177852000Y-120182092D01*
X177852000Y-125245408D01*
X176299408Y-126798000D01*
X99608092Y-126798000D01*
X98055500Y-125245408D01*
X98055500Y-107696691D01*
X121455180Y-107696691D01*
X121455180Y-108299250D01*
X121613930Y-108458000D01*
X123063000Y-108458000D01*
X123063000Y-107346750D01*
X123317000Y-107346750D01*
X123317000Y-108458000D01*
X124766070Y-108458000D01*
X124924820Y-108299250D01*
X124924820Y-107696691D01*
X124828147Y-107463302D01*
X124649519Y-107284673D01*
X124416130Y-107188000D01*
X123475750Y-107188000D01*
X123317000Y-107346750D01*
X123063000Y-107346750D01*
X122904250Y-107188000D01*
X121963870Y-107188000D01*
X121730481Y-107284673D01*
X121551853Y-107463302D01*
X121455180Y-107696691D01*
X98055500Y-107696691D01*
X98055500Y-97441532D01*
X100318073Y-97441532D01*
X100416736Y-97708387D01*
X101026461Y-97934908D01*
X101676460Y-97910856D01*
X102165264Y-97708387D01*
X102263927Y-97441532D01*
X101291000Y-96468605D01*
X100318073Y-97441532D01*
X98055500Y-97441532D01*
X98055500Y-96024461D01*
X99645092Y-96024461D01*
X99669144Y-96674460D01*
X99871613Y-97163264D01*
X100138468Y-97261927D01*
X101111395Y-96289000D01*
X101470605Y-96289000D01*
X102443532Y-97261927D01*
X102710387Y-97163264D01*
X102914893Y-96612795D01*
X104155716Y-96612795D01*
X104404106Y-97213943D01*
X104863637Y-97674278D01*
X105464352Y-97923716D01*
X106114795Y-97924284D01*
X106715943Y-97675894D01*
X107176278Y-97216363D01*
X107425716Y-96615648D01*
X107426284Y-95965205D01*
X107177894Y-95364057D01*
X106718363Y-94903722D01*
X106117648Y-94654284D01*
X105467205Y-94653716D01*
X104866057Y-94902106D01*
X104405722Y-95361637D01*
X104156284Y-95962352D01*
X104155716Y-96612795D01*
X102914893Y-96612795D01*
X102936908Y-96553539D01*
X102912856Y-95903540D01*
X102710387Y-95414736D01*
X102443532Y-95316073D01*
X101470605Y-96289000D01*
X101111395Y-96289000D01*
X100138468Y-95316073D01*
X99871613Y-95414736D01*
X99645092Y-96024461D01*
X98055500Y-96024461D01*
X98055500Y-95136468D01*
X100318073Y-95136468D01*
X101291000Y-96109395D01*
X102263927Y-95136468D01*
X102165264Y-94869613D01*
X101555539Y-94643092D01*
X100905540Y-94667144D01*
X100416736Y-94869613D01*
X100318073Y-95136468D01*
X98055500Y-95136468D01*
X98055500Y-90941532D01*
X100318073Y-90941532D01*
X100416736Y-91208387D01*
X101026461Y-91434908D01*
X101676460Y-91410856D01*
X102165264Y-91208387D01*
X102263927Y-90941532D01*
X101291000Y-89968605D01*
X100318073Y-90941532D01*
X98055500Y-90941532D01*
X98055500Y-89524461D01*
X99645092Y-89524461D01*
X99669144Y-90174460D01*
X99871613Y-90663264D01*
X100138468Y-90761927D01*
X101111395Y-89789000D01*
X101470605Y-89789000D01*
X102443532Y-90761927D01*
X102710387Y-90663264D01*
X102936908Y-90053539D01*
X102912856Y-89403540D01*
X102710387Y-88914736D01*
X102443532Y-88816073D01*
X101470605Y-89789000D01*
X101111395Y-89789000D01*
X100138468Y-88816073D01*
X99871613Y-88914736D01*
X99645092Y-89524461D01*
X98055500Y-89524461D01*
X98055500Y-87789532D01*
X100318073Y-87789532D01*
X100416736Y-88056387D01*
X100815381Y-88204489D01*
X100416736Y-88369613D01*
X100318073Y-88636468D01*
X101291000Y-89609395D01*
X102263927Y-88636468D01*
X102165264Y-88369613D01*
X101766619Y-88221511D01*
X102165264Y-88056387D01*
X102263927Y-87789532D01*
X101291000Y-86816605D01*
X100318073Y-87789532D01*
X98055500Y-87789532D01*
X98055500Y-86372461D01*
X99645092Y-86372461D01*
X99669144Y-87022460D01*
X99871613Y-87511264D01*
X100138468Y-87609927D01*
X101111395Y-86637000D01*
X101470605Y-86637000D01*
X102443532Y-87609927D01*
X102710387Y-87511264D01*
X102936908Y-86901539D01*
X102912856Y-86251540D01*
X102710387Y-85762736D01*
X102443532Y-85664073D01*
X101470605Y-86637000D01*
X101111395Y-86637000D01*
X100138468Y-85664073D01*
X99871613Y-85762736D01*
X99645092Y-86372461D01*
X98055500Y-86372461D01*
X98055500Y-85484468D01*
X100318073Y-85484468D01*
X101291000Y-86457395D01*
X102263927Y-85484468D01*
X102165264Y-85217613D01*
X101555539Y-84991092D01*
X100905540Y-85015144D01*
X100416736Y-85217613D01*
X100318073Y-85484468D01*
X98055500Y-85484468D01*
X98055500Y-81289532D01*
X100318073Y-81289532D01*
X100416736Y-81556387D01*
X101026461Y-81782908D01*
X101676460Y-81758856D01*
X102165264Y-81556387D01*
X102263927Y-81289532D01*
X101291000Y-80316605D01*
X100318073Y-81289532D01*
X98055500Y-81289532D01*
X98055500Y-79872461D01*
X99645092Y-79872461D01*
X99669144Y-80522460D01*
X99871613Y-81011264D01*
X100138468Y-81109927D01*
X101111395Y-80137000D01*
X101470605Y-80137000D01*
X102443532Y-81109927D01*
X102710387Y-81011264D01*
X102914893Y-80460795D01*
X104155716Y-80460795D01*
X104404106Y-81061943D01*
X104863637Y-81522278D01*
X105464352Y-81771716D01*
X106114795Y-81772284D01*
X106715943Y-81523894D01*
X107118836Y-81121704D01*
X108863246Y-82866114D01*
X109134139Y-83047119D01*
X109453680Y-83110680D01*
X109891452Y-83110680D01*
X109137566Y-83864566D01*
X108956561Y-84135459D01*
X108893000Y-84455000D01*
X108893000Y-88300132D01*
X108239132Y-88954000D01*
X107215058Y-88954000D01*
X107177894Y-88864057D01*
X106718363Y-88403722D01*
X106258663Y-88212839D01*
X106715943Y-88023894D01*
X107176278Y-87564363D01*
X107425716Y-86963648D01*
X107426284Y-86313205D01*
X107177894Y-85712057D01*
X106718363Y-85251722D01*
X106117648Y-85002284D01*
X105467205Y-85001716D01*
X104866057Y-85250106D01*
X104405722Y-85709637D01*
X104156284Y-86310352D01*
X104155716Y-86960795D01*
X104404106Y-87561943D01*
X104863637Y-88022278D01*
X105323337Y-88213161D01*
X104866057Y-88402106D01*
X104405722Y-88861637D01*
X104156284Y-89462352D01*
X104155716Y-90112795D01*
X104404106Y-90713943D01*
X104863637Y-91174278D01*
X105464352Y-91423716D01*
X106114795Y-91424284D01*
X106715943Y-91175894D01*
X107176278Y-90716363D01*
X107214630Y-90624000D01*
X108585000Y-90624000D01*
X108904541Y-90560439D01*
X109175434Y-90379434D01*
X110318434Y-89236434D01*
X110358601Y-89176320D01*
X110499439Y-88965541D01*
X110563000Y-88646000D01*
X110563000Y-84800868D01*
X111941000Y-83422868D01*
X111941000Y-85899159D01*
X111725946Y-86042853D01*
X111404039Y-86524622D01*
X111291000Y-87092907D01*
X111291000Y-87151093D01*
X111404039Y-87719378D01*
X111725946Y-88201147D01*
X112201648Y-88519000D01*
X111725946Y-88836853D01*
X111404039Y-89318622D01*
X111291000Y-89886907D01*
X111291000Y-89945093D01*
X111404039Y-90513378D01*
X111725946Y-90995147D01*
X112201648Y-91313000D01*
X111725946Y-91630853D01*
X111404039Y-92112622D01*
X111291000Y-92680907D01*
X111291000Y-92739093D01*
X111404039Y-93307378D01*
X111725946Y-93789147D01*
X112201648Y-94107000D01*
X111725946Y-94424853D01*
X111404039Y-94906622D01*
X111291000Y-95474907D01*
X111291000Y-95533093D01*
X111404039Y-96101378D01*
X111725946Y-96583147D01*
X112207715Y-96905054D01*
X112776000Y-97018093D01*
X113344285Y-96905054D01*
X113826054Y-96583147D01*
X114046000Y-96253974D01*
X114265946Y-96583147D01*
X114747715Y-96905054D01*
X115316000Y-97018093D01*
X115884285Y-96905054D01*
X116366054Y-96583147D01*
X116586000Y-96253974D01*
X116805946Y-96583147D01*
X117287715Y-96905054D01*
X117856000Y-97018093D01*
X118424285Y-96905054D01*
X118906054Y-96583147D01*
X118935403Y-96539223D01*
X119007673Y-96713698D01*
X119186301Y-96892327D01*
X119419690Y-96989000D01*
X120110250Y-96989000D01*
X120269000Y-96830250D01*
X120269000Y-95631000D01*
X120523000Y-95631000D01*
X120523000Y-96830250D01*
X120681750Y-96989000D01*
X121372310Y-96989000D01*
X121605699Y-96892327D01*
X121784327Y-96713698D01*
X121881000Y-96480309D01*
X121881000Y-95789750D01*
X121722250Y-95631000D01*
X120523000Y-95631000D01*
X120269000Y-95631000D01*
X120249000Y-95631000D01*
X120249000Y-95377000D01*
X120269000Y-95377000D01*
X120269000Y-94177750D01*
X120198250Y-94107000D01*
X120269000Y-94036250D01*
X120269000Y-92837000D01*
X120523000Y-92837000D01*
X120523000Y-94036250D01*
X120593750Y-94107000D01*
X120523000Y-94177750D01*
X120523000Y-95377000D01*
X121722250Y-95377000D01*
X121881000Y-95218250D01*
X121881000Y-94527691D01*
X121784327Y-94294302D01*
X121605699Y-94115673D01*
X121584761Y-94107000D01*
X121605699Y-94098327D01*
X121784327Y-93919698D01*
X121881000Y-93686309D01*
X121881000Y-92995750D01*
X121722250Y-92837000D01*
X120523000Y-92837000D01*
X120269000Y-92837000D01*
X120249000Y-92837000D01*
X120249000Y-92583000D01*
X120269000Y-92583000D01*
X120269000Y-91383750D01*
X120198250Y-91313000D01*
X120269000Y-91242250D01*
X120269000Y-90043000D01*
X120523000Y-90043000D01*
X120523000Y-91242250D01*
X120593750Y-91313000D01*
X120523000Y-91383750D01*
X120523000Y-92583000D01*
X121722250Y-92583000D01*
X121881000Y-92424250D01*
X121881000Y-91733691D01*
X121784327Y-91500302D01*
X121605699Y-91321673D01*
X121584761Y-91313000D01*
X121605699Y-91304327D01*
X121784327Y-91125698D01*
X121881000Y-90892309D01*
X121881000Y-90201750D01*
X121722250Y-90043000D01*
X120523000Y-90043000D01*
X120269000Y-90043000D01*
X120249000Y-90043000D01*
X120249000Y-89789000D01*
X120269000Y-89789000D01*
X120269000Y-88589750D01*
X120198250Y-88519000D01*
X120269000Y-88448250D01*
X120269000Y-87249000D01*
X120523000Y-87249000D01*
X120523000Y-88448250D01*
X120593750Y-88519000D01*
X120523000Y-88589750D01*
X120523000Y-89789000D01*
X121722250Y-89789000D01*
X121881000Y-89630250D01*
X121881000Y-88939691D01*
X121784327Y-88706302D01*
X121605699Y-88527673D01*
X121584761Y-88519000D01*
X121605699Y-88510327D01*
X121784327Y-88331698D01*
X121881000Y-88098309D01*
X121881000Y-87407750D01*
X121722250Y-87249000D01*
X120523000Y-87249000D01*
X120269000Y-87249000D01*
X120249000Y-87249000D01*
X120249000Y-86995000D01*
X120269000Y-86995000D01*
X120269000Y-85795750D01*
X120523000Y-85795750D01*
X120523000Y-86995000D01*
X121722250Y-86995000D01*
X121881000Y-86836250D01*
X121881000Y-86145691D01*
X121784327Y-85912302D01*
X121605699Y-85733673D01*
X121372310Y-85637000D01*
X120681750Y-85637000D01*
X120523000Y-85795750D01*
X120269000Y-85795750D01*
X120110250Y-85637000D01*
X119419690Y-85637000D01*
X119186301Y-85733673D01*
X119007673Y-85912302D01*
X118935403Y-86086777D01*
X118906054Y-86042853D01*
X118424285Y-85720946D01*
X117856000Y-85607907D01*
X117287715Y-85720946D01*
X116805946Y-86042853D01*
X116586000Y-86372026D01*
X116366054Y-86042853D01*
X116151000Y-85899159D01*
X116151000Y-81371868D01*
X119852868Y-77670000D01*
X127762000Y-77670000D01*
X128081541Y-77606439D01*
X128352434Y-77425434D01*
X132007000Y-73770868D01*
X132007000Y-73822132D01*
X123869566Y-81959566D01*
X123688561Y-82230459D01*
X123625000Y-82550000D01*
X123625000Y-94488000D01*
X123688561Y-94807541D01*
X123869566Y-95078434D01*
X124744829Y-95953697D01*
X124468999Y-95839162D01*
X124097033Y-95838838D01*
X123753257Y-95980883D01*
X123490008Y-96243673D01*
X123347362Y-96587201D01*
X123347038Y-96959167D01*
X123489083Y-97302943D01*
X123751873Y-97566192D01*
X123752265Y-97566355D01*
X126862095Y-100676185D01*
X127165431Y-100878867D01*
X127523240Y-100950040D01*
X128396184Y-100950040D01*
X128582167Y-100950202D01*
X128925943Y-100808157D01*
X129189192Y-100545367D01*
X129259575Y-100375867D01*
X129568574Y-100376136D01*
X126084855Y-103859855D01*
X125882173Y-104163191D01*
X125811000Y-104521000D01*
X125811000Y-108959710D01*
X124583242Y-110187468D01*
X124549635Y-110137172D01*
X124317404Y-109982000D01*
X124416130Y-109982000D01*
X124649519Y-109885327D01*
X124828147Y-109706698D01*
X124924820Y-109473309D01*
X124924820Y-108870750D01*
X124766070Y-108712000D01*
X123317000Y-108712000D01*
X123317000Y-108732000D01*
X123063000Y-108732000D01*
X123063000Y-108712000D01*
X121613930Y-108712000D01*
X121455180Y-108870750D01*
X121455180Y-109473309D01*
X121551853Y-109706698D01*
X121730481Y-109885327D01*
X121963870Y-109982000D01*
X122062596Y-109982000D01*
X121830365Y-110137172D01*
X121527533Y-110590391D01*
X121421193Y-111125000D01*
X121527533Y-111659609D01*
X121830365Y-112112828D01*
X122252664Y-112395000D01*
X121830365Y-112677172D01*
X121527533Y-113130391D01*
X121421193Y-113665000D01*
X121527533Y-114199609D01*
X121830365Y-114652828D01*
X122252664Y-114935000D01*
X121830365Y-115217172D01*
X121527533Y-115670391D01*
X121421193Y-116205000D01*
X121527533Y-116739609D01*
X121830365Y-117192828D01*
X122283584Y-117495660D01*
X122818193Y-117602000D01*
X123561807Y-117602000D01*
X124096416Y-117495660D01*
X124549635Y-117192828D01*
X124852467Y-116739609D01*
X124958807Y-116205000D01*
X124852467Y-115670391D01*
X124549635Y-115217172D01*
X124127336Y-114935000D01*
X124549635Y-114652828D01*
X124852467Y-114199609D01*
X124958807Y-113665000D01*
X124852467Y-113130391D01*
X124549635Y-112677172D01*
X124127336Y-112395000D01*
X124549635Y-112112828D01*
X124584934Y-112060000D01*
X124968000Y-112060000D01*
X125325809Y-111988827D01*
X125629145Y-111786145D01*
X127407145Y-110008145D01*
X127609827Y-109704809D01*
X127681000Y-109347000D01*
X127681000Y-106680000D01*
X128025907Y-106680000D01*
X128138946Y-107248285D01*
X128460853Y-107730054D01*
X128790026Y-107950000D01*
X128460853Y-108169946D01*
X128138946Y-108651715D01*
X128025907Y-109220000D01*
X128138946Y-109788285D01*
X128460853Y-110270054D01*
X128790026Y-110490000D01*
X128460853Y-110709946D01*
X128138946Y-111191715D01*
X128025907Y-111760000D01*
X128138946Y-112328285D01*
X128460853Y-112810054D01*
X128502452Y-112837850D01*
X128454683Y-112846838D01*
X128238559Y-112985910D01*
X128093569Y-113198110D01*
X128042560Y-113450000D01*
X128042560Y-115150000D01*
X128086838Y-115385317D01*
X128225910Y-115601441D01*
X128438110Y-115746431D01*
X128690000Y-115797440D01*
X130390000Y-115797440D01*
X130610000Y-115756044D01*
X130610000Y-120863834D01*
X130137378Y-120548039D01*
X129569093Y-120435000D01*
X129510907Y-120435000D01*
X128942622Y-120548039D01*
X128460853Y-120869946D01*
X128138946Y-121351715D01*
X128025907Y-121920000D01*
X128138946Y-122488285D01*
X128460853Y-122970054D01*
X128502452Y-122997850D01*
X128454683Y-123006838D01*
X128238559Y-123145910D01*
X128093569Y-123358110D01*
X128042560Y-123610000D01*
X128042560Y-125310000D01*
X128086838Y-125545317D01*
X128225910Y-125761441D01*
X128438110Y-125906431D01*
X128690000Y-125957440D01*
X130390000Y-125957440D01*
X130625317Y-125913162D01*
X130841441Y-125774090D01*
X130986431Y-125561890D01*
X131037440Y-125310000D01*
X131037440Y-123836308D01*
X132251566Y-125050434D01*
X132522459Y-125231439D01*
X132842000Y-125295000D01*
X133122560Y-125295000D01*
X133122560Y-125310000D01*
X133166838Y-125545317D01*
X133305910Y-125761441D01*
X133518110Y-125906431D01*
X133770000Y-125957440D01*
X135470000Y-125957440D01*
X135705317Y-125913162D01*
X135921441Y-125774090D01*
X136066431Y-125561890D01*
X136117440Y-125310000D01*
X136117440Y-123610000D01*
X136073162Y-123374683D01*
X135934090Y-123158559D01*
X135721890Y-123013569D01*
X135654459Y-122999914D01*
X135699147Y-122970054D01*
X136021054Y-122488285D01*
X136134093Y-121920000D01*
X136021054Y-121351715D01*
X135699147Y-120869946D01*
X135358447Y-120642298D01*
X135501358Y-120575183D01*
X135891645Y-120146924D01*
X136061476Y-119736890D01*
X135940155Y-119507000D01*
X134747000Y-119507000D01*
X134747000Y-119527000D01*
X134493000Y-119527000D01*
X134493000Y-119507000D01*
X133299845Y-119507000D01*
X133178524Y-119736890D01*
X133348355Y-120146924D01*
X133738642Y-120575183D01*
X133881553Y-120642298D01*
X133540853Y-120869946D01*
X133218946Y-121351715D01*
X133105907Y-121920000D01*
X133218946Y-122488285D01*
X133540853Y-122970054D01*
X133582452Y-122997850D01*
X133534683Y-123006838D01*
X133318559Y-123145910D01*
X133173569Y-123358110D01*
X133131032Y-123568164D01*
X132280000Y-122717132D01*
X132280000Y-110744000D01*
X132216439Y-110424459D01*
X132035434Y-110153566D01*
X131042230Y-109160362D01*
X130941054Y-108651715D01*
X130619147Y-108169946D01*
X130289974Y-107950000D01*
X130619147Y-107730054D01*
X130941054Y-107248285D01*
X131054093Y-106680000D01*
X130941054Y-106111715D01*
X130619147Y-105629946D01*
X130137378Y-105308039D01*
X129569093Y-105195000D01*
X129510907Y-105195000D01*
X128942622Y-105308039D01*
X128460853Y-105629946D01*
X128138946Y-106111715D01*
X128025907Y-106680000D01*
X127681000Y-106680000D01*
X127681000Y-104908290D01*
X132594290Y-99995000D01*
X133463977Y-99995000D01*
X133540853Y-100110054D01*
X133881553Y-100337702D01*
X133738642Y-100404817D01*
X133348355Y-100833076D01*
X133178524Y-101243110D01*
X133299845Y-101473000D01*
X134493000Y-101473000D01*
X134493000Y-101453000D01*
X134747000Y-101453000D01*
X134747000Y-101473000D01*
X135940155Y-101473000D01*
X136061476Y-101243110D01*
X135891645Y-100833076D01*
X135501358Y-100404817D01*
X135358447Y-100337702D01*
X135574230Y-100193520D01*
X136479000Y-101098290D01*
X136479000Y-108653436D01*
X136203799Y-108539162D01*
X135831833Y-108538838D01*
X135589422Y-108639000D01*
X133822868Y-108639000D01*
X133296000Y-108112132D01*
X133296000Y-107966040D01*
X133305910Y-107981441D01*
X133518110Y-108126431D01*
X133770000Y-108177440D01*
X135470000Y-108177440D01*
X135705317Y-108133162D01*
X135921441Y-107994090D01*
X136066431Y-107781890D01*
X136117440Y-107530000D01*
X136117440Y-105830000D01*
X136073162Y-105594683D01*
X135934090Y-105378559D01*
X135721890Y-105233569D01*
X135654459Y-105219914D01*
X135699147Y-105190054D01*
X136021054Y-104708285D01*
X136134093Y-104140000D01*
X136021054Y-103571715D01*
X135699147Y-103089946D01*
X135358447Y-102862298D01*
X135501358Y-102795183D01*
X135891645Y-102366924D01*
X136061476Y-101956890D01*
X135940155Y-101727000D01*
X134747000Y-101727000D01*
X134747000Y-101747000D01*
X134493000Y-101747000D01*
X134493000Y-101727000D01*
X133299845Y-101727000D01*
X133178524Y-101956890D01*
X133348355Y-102366924D01*
X133738642Y-102795183D01*
X133881553Y-102862298D01*
X133540853Y-103089946D01*
X133296000Y-103456395D01*
X133296000Y-102997000D01*
X133265130Y-102841807D01*
X133232440Y-102677460D01*
X133051434Y-102406566D01*
X132591535Y-101946667D01*
X132492117Y-101706057D01*
X132229327Y-101442808D01*
X131885799Y-101300162D01*
X131513833Y-101299838D01*
X131170057Y-101441883D01*
X130906808Y-101704673D01*
X130764162Y-102048201D01*
X130763838Y-102420167D01*
X130905883Y-102763943D01*
X131168673Y-103027192D01*
X131410910Y-103127778D01*
X131626000Y-103342868D01*
X131626000Y-108458000D01*
X131689561Y-108777541D01*
X131771693Y-108900460D01*
X131870566Y-109048434D01*
X132886566Y-110064434D01*
X133157459Y-110245439D01*
X133477000Y-110309000D01*
X134419978Y-110309000D01*
X134022622Y-110388039D01*
X133540853Y-110709946D01*
X133218946Y-111191715D01*
X133105907Y-111760000D01*
X133218946Y-112328285D01*
X133540853Y-112810054D01*
X133870026Y-113030000D01*
X133540853Y-113249946D01*
X133218946Y-113731715D01*
X133105907Y-114300000D01*
X133218946Y-114868285D01*
X133540853Y-115350054D01*
X133870026Y-115570000D01*
X133540853Y-115789946D01*
X133218946Y-116271715D01*
X133105907Y-116840000D01*
X133218946Y-117408285D01*
X133540853Y-117890054D01*
X133881553Y-118117702D01*
X133738642Y-118184817D01*
X133348355Y-118613076D01*
X133178524Y-119023110D01*
X133299845Y-119253000D01*
X134493000Y-119253000D01*
X134493000Y-119233000D01*
X134747000Y-119233000D01*
X134747000Y-119253000D01*
X135940155Y-119253000D01*
X136061476Y-119023110D01*
X135891645Y-118613076D01*
X135501358Y-118184817D01*
X135358447Y-118117702D01*
X135491199Y-118029000D01*
X136271000Y-118029000D01*
X136628809Y-117957827D01*
X136932145Y-117755145D01*
X138075145Y-116612145D01*
X138277827Y-116308809D01*
X138349000Y-115951000D01*
X138349000Y-105239868D01*
X142411566Y-109302434D01*
X142682459Y-109483439D01*
X143002000Y-109547000D01*
X143336766Y-109547000D01*
X143577201Y-109646838D01*
X143945000Y-109647158D01*
X143945000Y-110546813D01*
X143700853Y-110709946D01*
X143378946Y-111191715D01*
X143265907Y-111760000D01*
X143378946Y-112328285D01*
X143700853Y-112810054D01*
X144030026Y-113030000D01*
X143700853Y-113249946D01*
X143378946Y-113731715D01*
X143265907Y-114300000D01*
X143378946Y-114868285D01*
X143700853Y-115350054D01*
X144030026Y-115570000D01*
X143700853Y-115789946D01*
X143378946Y-116271715D01*
X143265907Y-116840000D01*
X143378946Y-117408285D01*
X143700853Y-117890054D01*
X144041553Y-118117702D01*
X143898642Y-118184817D01*
X143508355Y-118613076D01*
X143338524Y-119023110D01*
X143459845Y-119253000D01*
X144653000Y-119253000D01*
X144653000Y-119233000D01*
X144907000Y-119233000D01*
X144907000Y-119253000D01*
X146100155Y-119253000D01*
X146221476Y-119023110D01*
X146051645Y-118613076D01*
X145661358Y-118184817D01*
X145518447Y-118117702D01*
X145859147Y-117890054D01*
X146181054Y-117408285D01*
X146294093Y-116840000D01*
X146181054Y-116271715D01*
X145859147Y-115789946D01*
X145529974Y-115570000D01*
X145859147Y-115350054D01*
X146181054Y-114868285D01*
X146294093Y-114300000D01*
X146181054Y-113731715D01*
X146117007Y-113635861D01*
X147021434Y-112731434D01*
X147202440Y-112460540D01*
X147266000Y-112141000D01*
X147266000Y-109184868D01*
X148545434Y-107905434D01*
X148583784Y-107848039D01*
X148721736Y-107641579D01*
X148780853Y-107730054D01*
X149110026Y-107950000D01*
X148780853Y-108169946D01*
X148458946Y-108651715D01*
X148345907Y-109220000D01*
X148458946Y-109788285D01*
X148780853Y-110270054D01*
X148822452Y-110297850D01*
X148774683Y-110306838D01*
X148558559Y-110445910D01*
X148413569Y-110658110D01*
X148362560Y-110910000D01*
X148362560Y-112610000D01*
X148406838Y-112845317D01*
X148545910Y-113061441D01*
X148758110Y-113206431D01*
X149010000Y-113257440D01*
X150710000Y-113257440D01*
X150945317Y-113213162D01*
X151161441Y-113074090D01*
X151306431Y-112861890D01*
X151357440Y-112610000D01*
X151357440Y-110910000D01*
X151313162Y-110674683D01*
X151174090Y-110458559D01*
X150961890Y-110313569D01*
X150894459Y-110299914D01*
X150939147Y-110270054D01*
X151261054Y-109788285D01*
X151348383Y-109349251D01*
X151438000Y-109438868D01*
X151438000Y-115351132D01*
X150279600Y-116509532D01*
X150187000Y-116285422D01*
X150187000Y-115189000D01*
X150123439Y-114869459D01*
X149942434Y-114598566D01*
X148974535Y-113630667D01*
X148875117Y-113390057D01*
X148612327Y-113126808D01*
X148268799Y-112984162D01*
X147896833Y-112983838D01*
X147553057Y-113125883D01*
X147289808Y-113388673D01*
X147147162Y-113732201D01*
X147146838Y-114104167D01*
X147288883Y-114447943D01*
X147551673Y-114711192D01*
X147793910Y-114811778D01*
X148517000Y-115534868D01*
X148517000Y-116285766D01*
X148417162Y-116526201D01*
X148416838Y-116898167D01*
X148558883Y-117241943D01*
X148821673Y-117505192D01*
X149148308Y-117640824D01*
X145883195Y-120905937D01*
X145859147Y-120869946D01*
X145518447Y-120642298D01*
X145661358Y-120575183D01*
X146051645Y-120146924D01*
X146221476Y-119736890D01*
X146100155Y-119507000D01*
X144907000Y-119507000D01*
X144907000Y-119527000D01*
X144653000Y-119527000D01*
X144653000Y-119507000D01*
X143459845Y-119507000D01*
X143338524Y-119736890D01*
X143508355Y-120146924D01*
X143898642Y-120575183D01*
X144041553Y-120642298D01*
X143700853Y-120869946D01*
X143378946Y-121351715D01*
X143265907Y-121920000D01*
X143378946Y-122488285D01*
X143700853Y-122970054D01*
X143742452Y-122997850D01*
X143694683Y-123006838D01*
X143478559Y-123145910D01*
X143333569Y-123358110D01*
X143282560Y-123610000D01*
X143282560Y-125310000D01*
X143326838Y-125545317D01*
X143465910Y-125761441D01*
X143678110Y-125906431D01*
X143930000Y-125957440D01*
X145630000Y-125957440D01*
X145865317Y-125913162D01*
X146081441Y-125774090D01*
X146226431Y-125561890D01*
X146277440Y-125310000D01*
X146277440Y-123610000D01*
X146233162Y-123374683D01*
X146094090Y-123158559D01*
X145881890Y-123013569D01*
X145814459Y-122999914D01*
X145859147Y-122970054D01*
X146002841Y-122755000D01*
X146050000Y-122755000D01*
X146369541Y-122691439D01*
X146640434Y-122510434D01*
X146810532Y-122340336D01*
X146907883Y-122575943D01*
X147170673Y-122839192D01*
X147171065Y-122839355D01*
X149833855Y-125502145D01*
X150137191Y-125704827D01*
X150495000Y-125776000D01*
X151257000Y-125776000D01*
X151614809Y-125704827D01*
X151918145Y-125502145D01*
X153759828Y-123660462D01*
X170204422Y-123660462D01*
X170711076Y-124886658D01*
X171648407Y-125825627D01*
X172873717Y-126334420D01*
X174200462Y-126335578D01*
X175426658Y-125828924D01*
X176365627Y-124891593D01*
X176874420Y-123666283D01*
X176875578Y-122339538D01*
X176368924Y-121113342D01*
X175431593Y-120174373D01*
X174206283Y-119665580D01*
X172879538Y-119664422D01*
X171653342Y-120171076D01*
X170714373Y-121108407D01*
X170205580Y-122333717D01*
X170204422Y-123660462D01*
X153759828Y-123660462D01*
X155855145Y-121565145D01*
X156057827Y-121261809D01*
X156129000Y-120904000D01*
X156129000Y-119570089D01*
X161787517Y-119570089D01*
X161916725Y-119862859D01*
X162616883Y-120131071D01*
X163366384Y-120110928D01*
X163965275Y-119862859D01*
X164094483Y-119570089D01*
X162941000Y-118416605D01*
X161787517Y-119570089D01*
X156129000Y-119570089D01*
X156129000Y-117912883D01*
X161046929Y-117912883D01*
X161067072Y-118662384D01*
X161315141Y-119261275D01*
X161607911Y-119390483D01*
X162761395Y-118237000D01*
X163120605Y-118237000D01*
X164274089Y-119390483D01*
X164566859Y-119261275D01*
X164835071Y-118561117D01*
X164814928Y-117811616D01*
X164566859Y-117212725D01*
X164274089Y-117083517D01*
X163120605Y-118237000D01*
X162761395Y-118237000D01*
X161607911Y-117083517D01*
X161315141Y-117212725D01*
X161046929Y-117912883D01*
X156129000Y-117912883D01*
X156129000Y-116903911D01*
X161787517Y-116903911D01*
X162941000Y-118057395D01*
X164094483Y-116903911D01*
X163965275Y-116611141D01*
X163265117Y-116342929D01*
X162515616Y-116363072D01*
X161916725Y-116611141D01*
X161787517Y-116903911D01*
X156129000Y-116903911D01*
X156129000Y-116586005D01*
X156129001Y-116586000D01*
X156069611Y-116287434D01*
X156057827Y-116228191D01*
X155855145Y-115924855D01*
X154478000Y-114547710D01*
X154478000Y-109220000D01*
X154434213Y-108999870D01*
X154566642Y-109145183D01*
X155091108Y-109391486D01*
X155321000Y-109270819D01*
X155321000Y-108077000D01*
X155575000Y-108077000D01*
X155575000Y-109270819D01*
X155804892Y-109391486D01*
X156329358Y-109145183D01*
X156719645Y-108716924D01*
X156889476Y-108306890D01*
X156768155Y-108077000D01*
X155575000Y-108077000D01*
X155321000Y-108077000D01*
X154127845Y-108077000D01*
X154006524Y-108306890D01*
X154044947Y-108399657D01*
X153716000Y-108070710D01*
X153716000Y-102870000D01*
X153933907Y-102870000D01*
X154046946Y-103438285D01*
X154368853Y-103920054D01*
X154698026Y-104140000D01*
X154368853Y-104359946D01*
X154046946Y-104841715D01*
X153933907Y-105410000D01*
X154046946Y-105978285D01*
X154368853Y-106460054D01*
X154709553Y-106687702D01*
X154566642Y-106754817D01*
X154176355Y-107183076D01*
X154006524Y-107593110D01*
X154127845Y-107823000D01*
X155321000Y-107823000D01*
X155321000Y-107803000D01*
X155575000Y-107803000D01*
X155575000Y-107823000D01*
X156768155Y-107823000D01*
X156889476Y-107593110D01*
X156719645Y-107183076D01*
X156329358Y-106754817D01*
X156186447Y-106687702D01*
X156527147Y-106460054D01*
X156849054Y-105978285D01*
X156962093Y-105410000D01*
X156849054Y-104841715D01*
X156527147Y-104359946D01*
X156197974Y-104140000D01*
X156527147Y-103920054D01*
X156849054Y-103438285D01*
X156962093Y-102870000D01*
X156849054Y-102301715D01*
X156527147Y-101819946D01*
X156485548Y-101792150D01*
X156533317Y-101783162D01*
X156749441Y-101644090D01*
X156894431Y-101431890D01*
X156945440Y-101180000D01*
X156945440Y-99480000D01*
X156901162Y-99244683D01*
X156762090Y-99028559D01*
X156549890Y-98883569D01*
X156298000Y-98832560D01*
X154598000Y-98832560D01*
X154362683Y-98876838D01*
X154146559Y-99015910D01*
X154001569Y-99228110D01*
X153950560Y-99480000D01*
X153950560Y-101180000D01*
X153994838Y-101415317D01*
X154133910Y-101631441D01*
X154346110Y-101776431D01*
X154413541Y-101790086D01*
X154368853Y-101819946D01*
X154046946Y-102301715D01*
X153933907Y-102870000D01*
X153716000Y-102870000D01*
X153716000Y-102108000D01*
X153644827Y-101750191D01*
X153442145Y-101446855D01*
X153442142Y-101446853D01*
X152934145Y-100938855D01*
X152630809Y-100736173D01*
X152273000Y-100665000D01*
X151341446Y-100665000D01*
X151313162Y-100514683D01*
X151174090Y-100298559D01*
X150961890Y-100153569D01*
X150894459Y-100139914D01*
X150939147Y-100110054D01*
X151261054Y-99628285D01*
X151374093Y-99060000D01*
X151261054Y-98491715D01*
X150939147Y-98009946D01*
X150609974Y-97790000D01*
X150939147Y-97570054D01*
X151261054Y-97088285D01*
X151374093Y-96520000D01*
X151261054Y-95951715D01*
X150939147Y-95469946D01*
X150598447Y-95242298D01*
X150741358Y-95175183D01*
X151131645Y-94746924D01*
X151301476Y-94336890D01*
X151180155Y-94107000D01*
X149987000Y-94107000D01*
X149987000Y-94127000D01*
X149733000Y-94127000D01*
X149733000Y-94107000D01*
X148539845Y-94107000D01*
X148418524Y-94336890D01*
X148588355Y-94746924D01*
X148978642Y-95175183D01*
X149121553Y-95242298D01*
X148780853Y-95469946D01*
X148637159Y-95685000D01*
X148590000Y-95685000D01*
X148270459Y-95748561D01*
X148055238Y-95892367D01*
X147999566Y-95929566D01*
X147747000Y-96182132D01*
X147747000Y-93218000D01*
X147705626Y-93010000D01*
X147827184Y-93010000D01*
X148013167Y-93010162D01*
X148013559Y-93010000D01*
X148773425Y-93010000D01*
X148588355Y-93213076D01*
X148418524Y-93623110D01*
X148539845Y-93853000D01*
X149733000Y-93853000D01*
X149733000Y-93833000D01*
X149987000Y-93833000D01*
X149987000Y-93853000D01*
X151180155Y-93853000D01*
X151301476Y-93623110D01*
X151131645Y-93213076D01*
X150946575Y-93010000D01*
X151764184Y-93010000D01*
X151950167Y-93010162D01*
X152293943Y-92868117D01*
X152557192Y-92605327D01*
X152699838Y-92261799D01*
X152700162Y-91889833D01*
X152700000Y-91889441D01*
X152700000Y-75057000D01*
X152628827Y-74699191D01*
X152426145Y-74395855D01*
X151357440Y-73327150D01*
X151357440Y-72810000D01*
X151313162Y-72574683D01*
X151174090Y-72358559D01*
X150961890Y-72213569D01*
X150894459Y-72199914D01*
X150939147Y-72170054D01*
X151261054Y-71688285D01*
X151374093Y-71120000D01*
X151261054Y-70551715D01*
X150939147Y-70069946D01*
X150598447Y-69842298D01*
X150741358Y-69775183D01*
X151131645Y-69346924D01*
X151301476Y-68936890D01*
X151180155Y-68707000D01*
X149987000Y-68707000D01*
X149987000Y-68727000D01*
X149733000Y-68727000D01*
X149733000Y-68707000D01*
X148539845Y-68707000D01*
X148418524Y-68936890D01*
X148588355Y-69346924D01*
X148978642Y-69775183D01*
X149121553Y-69842298D01*
X148780853Y-70069946D01*
X148663047Y-70246256D01*
X148613191Y-70256173D01*
X148337424Y-70440434D01*
X148309855Y-70458855D01*
X146658855Y-72109855D01*
X146610502Y-72182221D01*
X146588762Y-72066683D01*
X146449690Y-71850559D01*
X146237490Y-71705569D01*
X146170059Y-71691914D01*
X146214747Y-71662054D01*
X146536654Y-71180285D01*
X146649693Y-70612000D01*
X146536654Y-70043715D01*
X146214747Y-69561946D01*
X145874047Y-69334298D01*
X146016958Y-69267183D01*
X146407245Y-68838924D01*
X146577076Y-68428890D01*
X146468479Y-68223110D01*
X148418524Y-68223110D01*
X148539845Y-68453000D01*
X149733000Y-68453000D01*
X149733000Y-67259181D01*
X149987000Y-67259181D01*
X149987000Y-68453000D01*
X151180155Y-68453000D01*
X151301476Y-68223110D01*
X151131645Y-67813076D01*
X150741358Y-67384817D01*
X150216892Y-67138514D01*
X149987000Y-67259181D01*
X149733000Y-67259181D01*
X149503108Y-67138514D01*
X148978642Y-67384817D01*
X148588355Y-67813076D01*
X148418524Y-68223110D01*
X146468479Y-68223110D01*
X146455755Y-68199000D01*
X145262600Y-68199000D01*
X145262600Y-68219000D01*
X145008600Y-68219000D01*
X145008600Y-68199000D01*
X143815445Y-68199000D01*
X143694124Y-68428890D01*
X143863955Y-68838924D01*
X144254242Y-69267183D01*
X144397153Y-69334298D01*
X144056453Y-69561946D01*
X143734546Y-70043715D01*
X143621507Y-70612000D01*
X143734546Y-71180285D01*
X144056453Y-71662054D01*
X144098052Y-71689850D01*
X144050283Y-71698838D01*
X143834159Y-71837910D01*
X143689169Y-72050110D01*
X143638160Y-72302000D01*
X143638160Y-73333459D01*
X143593880Y-73110849D01*
X143282811Y-72645302D01*
X142900725Y-72390000D01*
X143282811Y-72134698D01*
X143593880Y-71669151D01*
X143703113Y-71120000D01*
X143593880Y-70570849D01*
X143282811Y-70105302D01*
X142817264Y-69794233D01*
X142268113Y-69685000D01*
X142211887Y-69685000D01*
X141662736Y-69794233D01*
X141197189Y-70105302D01*
X140886120Y-70570849D01*
X140776887Y-71120000D01*
X140886120Y-71669151D01*
X141197189Y-72134698D01*
X141579275Y-72390000D01*
X141197189Y-72645302D01*
X140886120Y-73110849D01*
X140776887Y-73660000D01*
X140886120Y-74209151D01*
X141197189Y-74674698D01*
X141601703Y-74944986D01*
X141384866Y-75047611D01*
X141008959Y-75462577D01*
X140848096Y-75850961D01*
X140970085Y-76073000D01*
X142113000Y-76073000D01*
X142113000Y-76053000D01*
X142367000Y-76053000D01*
X142367000Y-76073000D01*
X143509915Y-76073000D01*
X143631904Y-75850961D01*
X143471041Y-75462577D01*
X143095134Y-75047611D01*
X142878297Y-74944986D01*
X143282811Y-74674698D01*
X143593880Y-74209151D01*
X143638160Y-73986541D01*
X143638160Y-74002000D01*
X143682438Y-74237317D01*
X143821510Y-74453441D01*
X144033710Y-74598431D01*
X144285600Y-74649440D01*
X145985600Y-74649440D01*
X146220917Y-74605162D01*
X146385000Y-74499577D01*
X146385000Y-74718554D01*
X146234683Y-74746838D01*
X146018559Y-74885910D01*
X145873569Y-75098110D01*
X145822560Y-75350000D01*
X145822560Y-76375150D01*
X145007855Y-77189855D01*
X144805173Y-77493191D01*
X144734000Y-77851000D01*
X144734000Y-79672132D01*
X143678592Y-78616724D01*
X143593880Y-78190849D01*
X143282811Y-77725302D01*
X142878297Y-77455014D01*
X143095134Y-77352389D01*
X143471041Y-76937423D01*
X143631904Y-76549039D01*
X143509915Y-76327000D01*
X142367000Y-76327000D01*
X142367000Y-76347000D01*
X142113000Y-76347000D01*
X142113000Y-76327000D01*
X140970085Y-76327000D01*
X140848096Y-76549039D01*
X141008959Y-76937423D01*
X141384866Y-77352389D01*
X141601703Y-77455014D01*
X141197189Y-77725302D01*
X140886120Y-78190849D01*
X140776887Y-78740000D01*
X140886120Y-79289151D01*
X141197189Y-79754698D01*
X141579275Y-80010000D01*
X141197189Y-80265302D01*
X140886120Y-80730849D01*
X140776887Y-81280000D01*
X140845519Y-81625037D01*
X140665602Y-81445120D01*
X140665642Y-81399633D01*
X140523597Y-81055857D01*
X140260807Y-80792608D01*
X139917279Y-80649962D01*
X139545313Y-80649638D01*
X139201537Y-80791683D01*
X138938288Y-81054473D01*
X138795642Y-81398001D01*
X138795318Y-81769967D01*
X138937363Y-82113743D01*
X139200153Y-82376992D01*
X139543681Y-82519638D01*
X139590557Y-82519679D01*
X140088080Y-83017202D01*
X140088080Y-84383880D01*
X140145932Y-84674719D01*
X140310679Y-84921281D01*
X140914398Y-85525000D01*
X139593320Y-85525000D01*
X139273779Y-85588561D01*
X139002886Y-85769566D01*
X138337968Y-86434484D01*
X138156963Y-86705377D01*
X138093402Y-87024918D01*
X138093402Y-95230242D01*
X138156963Y-95549783D01*
X138289782Y-95748561D01*
X138337968Y-95820676D01*
X139774288Y-97256996D01*
X139817561Y-97474541D01*
X139946693Y-97667800D01*
X139919650Y-97667800D01*
X138293876Y-96042026D01*
X138162767Y-95910688D01*
X137819239Y-95768042D01*
X137447273Y-95767718D01*
X137385400Y-95793283D01*
X137385400Y-68366640D01*
X137321839Y-68047099D01*
X137217537Y-67891000D01*
X143129000Y-67891000D01*
X143448541Y-67827439D01*
X143719434Y-67646434D01*
X143724785Y-67641083D01*
X143694124Y-67715110D01*
X143815445Y-67945000D01*
X145008600Y-67945000D01*
X145008600Y-66751181D01*
X145262600Y-66751181D01*
X145262600Y-67945000D01*
X146455755Y-67945000D01*
X146577076Y-67715110D01*
X146407245Y-67305076D01*
X146016958Y-66876817D01*
X145492492Y-66630514D01*
X145262600Y-66751181D01*
X145008600Y-66751181D01*
X144778708Y-66630514D01*
X144696966Y-66668902D01*
X145521906Y-65843962D01*
X145642391Y-65924467D01*
X146177000Y-66030807D01*
X146711609Y-65924467D01*
X147164828Y-65621635D01*
X147455647Y-65186394D01*
X147474941Y-65251761D01*
X147818974Y-65677450D01*
X148299723Y-65939080D01*
X148373930Y-65954040D01*
X148590000Y-65831540D01*
X148590000Y-64389000D01*
X148570000Y-64389000D01*
X148570000Y-64135000D01*
X148590000Y-64135000D01*
X148590000Y-62692460D01*
X148844000Y-62692460D01*
X148844000Y-64135000D01*
X148864000Y-64135000D01*
X148864000Y-64389000D01*
X148844000Y-64389000D01*
X148844000Y-65831540D01*
X149060070Y-65954040D01*
X149134277Y-65939080D01*
X149615026Y-65677450D01*
X149851819Y-65384454D01*
X149891838Y-65597137D01*
X150030910Y-65813261D01*
X150243110Y-65958251D01*
X150495000Y-66009260D01*
X152019000Y-66009260D01*
X152254317Y-65964982D01*
X152470441Y-65825910D01*
X152615431Y-65613710D01*
X152666440Y-65361820D01*
X152666440Y-63162180D01*
X152622162Y-62926863D01*
X152483090Y-62710739D01*
X152270890Y-62565749D01*
X152019000Y-62514740D01*
X150495000Y-62514740D01*
X150259683Y-62559018D01*
X150043559Y-62698090D01*
X149898569Y-62910290D01*
X149852079Y-63139867D01*
X149615026Y-62846550D01*
X149134277Y-62584920D01*
X149060070Y-62569960D01*
X148844000Y-62692460D01*
X148590000Y-62692460D01*
X148373930Y-62569960D01*
X148299723Y-62584920D01*
X147818974Y-62846550D01*
X147474941Y-63272239D01*
X147455647Y-63337606D01*
X147164828Y-62902365D01*
X146711609Y-62599533D01*
X146177000Y-62493193D01*
X145642391Y-62599533D01*
X145189172Y-62902365D01*
X144907000Y-63324664D01*
X144624828Y-62902365D01*
X144171609Y-62599533D01*
X143637000Y-62493193D01*
X143102391Y-62599533D01*
X142649172Y-62902365D01*
X142367000Y-63324664D01*
X142084828Y-62902365D01*
X141631609Y-62599533D01*
X141097000Y-62493193D01*
X140562391Y-62599533D01*
X140109172Y-62902365D01*
X139827000Y-63324664D01*
X139544828Y-62902365D01*
X139091609Y-62599533D01*
X138557000Y-62493193D01*
X138022391Y-62599533D01*
X137569172Y-62902365D01*
X137287000Y-63324664D01*
X137004828Y-62902365D01*
X136551609Y-62599533D01*
X136017000Y-62493193D01*
X135482391Y-62599533D01*
X135029172Y-62902365D01*
X134747000Y-63324664D01*
X134464828Y-62902365D01*
X134011609Y-62599533D01*
X133477000Y-62493193D01*
X132942391Y-62599533D01*
X132489172Y-62902365D01*
X132186340Y-63355584D01*
X132080000Y-63890193D01*
X132080000Y-64633807D01*
X132186340Y-65168416D01*
X132315043Y-65361033D01*
X132141459Y-65395561D01*
X131870566Y-65576566D01*
X130967694Y-66479438D01*
X131054093Y-66045080D01*
X130941054Y-65476795D01*
X130619147Y-64995026D01*
X130289974Y-64775080D01*
X130619147Y-64555134D01*
X130941054Y-64073365D01*
X131054093Y-63505080D01*
X130941054Y-62936795D01*
X130619147Y-62455026D01*
X130137378Y-62133119D01*
X129569093Y-62020080D01*
X129510907Y-62020080D01*
X128942622Y-62133119D01*
X128460853Y-62455026D01*
X128138946Y-62936795D01*
X128025907Y-63505080D01*
X128138946Y-64073365D01*
X128460853Y-64555134D01*
X128790026Y-64775080D01*
X128460853Y-64995026D01*
X128138946Y-65476795D01*
X128025907Y-66045080D01*
X128138946Y-66613365D01*
X128460853Y-67095134D01*
X128790026Y-67315080D01*
X128460853Y-67535026D01*
X128138946Y-68016795D01*
X128025907Y-68585080D01*
X128138946Y-69153365D01*
X128460853Y-69635134D01*
X128502452Y-69662930D01*
X128454683Y-69671918D01*
X128238559Y-69810990D01*
X128093569Y-70023190D01*
X128042560Y-70275080D01*
X128042560Y-71975080D01*
X128086838Y-72210397D01*
X128225910Y-72426521D01*
X128438110Y-72571511D01*
X128538327Y-72591805D01*
X126781132Y-74349000D01*
X119425843Y-74349000D01*
X119426162Y-73982833D01*
X119284117Y-73639057D01*
X119021327Y-73375808D01*
X118677799Y-73233162D01*
X118305833Y-73232838D01*
X117962057Y-73374883D01*
X117698808Y-73637673D01*
X117598222Y-73879910D01*
X116772994Y-74705138D01*
X116718717Y-74573777D01*
X116455927Y-74310528D01*
X116112399Y-74167882D01*
X115740433Y-74167558D01*
X115396657Y-74309603D01*
X115133408Y-74572393D01*
X115118816Y-74607534D01*
X109295746Y-80430604D01*
X109164408Y-80561713D01*
X109092868Y-80734000D01*
X107905434Y-79546566D01*
X107852863Y-79511439D01*
X107634541Y-79365561D01*
X107315000Y-79302000D01*
X107215058Y-79302000D01*
X107177894Y-79212057D01*
X106718363Y-78751722D01*
X106117648Y-78502284D01*
X105467205Y-78501716D01*
X104866057Y-78750106D01*
X104405722Y-79209637D01*
X104156284Y-79810352D01*
X104155716Y-80460795D01*
X102914893Y-80460795D01*
X102936908Y-80401539D01*
X102912856Y-79751540D01*
X102710387Y-79262736D01*
X102443532Y-79164073D01*
X101470605Y-80137000D01*
X101111395Y-80137000D01*
X100138468Y-79164073D01*
X99871613Y-79262736D01*
X99645092Y-79872461D01*
X98055500Y-79872461D01*
X98055500Y-78984468D01*
X100318073Y-78984468D01*
X101291000Y-79957395D01*
X102263927Y-78984468D01*
X102165264Y-78717613D01*
X101555539Y-78491092D01*
X100905540Y-78515144D01*
X100416736Y-78717613D01*
X100318073Y-78984468D01*
X98055500Y-78984468D01*
X98055500Y-75701193D01*
X98806000Y-75701193D01*
X98806000Y-76444807D01*
X98912340Y-76979416D01*
X99215172Y-77432635D01*
X99668391Y-77735467D01*
X100203000Y-77841807D01*
X100737609Y-77735467D01*
X101190828Y-77432635D01*
X101473000Y-77010336D01*
X101755172Y-77432635D01*
X102208391Y-77735467D01*
X102743000Y-77841807D01*
X103277609Y-77735467D01*
X103730828Y-77432635D01*
X104013000Y-77010336D01*
X104295172Y-77432635D01*
X104748391Y-77735467D01*
X105283000Y-77841807D01*
X105817609Y-77735467D01*
X106270828Y-77432635D01*
X106561647Y-76997394D01*
X106580941Y-77062761D01*
X106924974Y-77488450D01*
X107405723Y-77750080D01*
X107479930Y-77765040D01*
X107696000Y-77642540D01*
X107696000Y-76200000D01*
X107676000Y-76200000D01*
X107676000Y-75946000D01*
X107696000Y-75946000D01*
X107696000Y-74503460D01*
X107950000Y-74503460D01*
X107950000Y-75946000D01*
X107970000Y-75946000D01*
X107970000Y-76200000D01*
X107950000Y-76200000D01*
X107950000Y-77642540D01*
X108166070Y-77765040D01*
X108240277Y-77750080D01*
X108721026Y-77488450D01*
X108957819Y-77195454D01*
X108997838Y-77408137D01*
X109136910Y-77624261D01*
X109349110Y-77769251D01*
X109601000Y-77820260D01*
X111125000Y-77820260D01*
X111360317Y-77775982D01*
X111576441Y-77636910D01*
X111721431Y-77424710D01*
X111772440Y-77172820D01*
X111772440Y-74973180D01*
X111728162Y-74737863D01*
X111589090Y-74521739D01*
X111376890Y-74376749D01*
X111125000Y-74325740D01*
X109601000Y-74325740D01*
X109365683Y-74370018D01*
X109149559Y-74509090D01*
X109004569Y-74721290D01*
X108958079Y-74950867D01*
X108721026Y-74657550D01*
X108240277Y-74395920D01*
X108166070Y-74380960D01*
X107950000Y-74503460D01*
X107696000Y-74503460D01*
X107479930Y-74380960D01*
X107405723Y-74395920D01*
X106924974Y-74657550D01*
X106580941Y-75083239D01*
X106561647Y-75148606D01*
X106270828Y-74713365D01*
X105817609Y-74410533D01*
X105283000Y-74304193D01*
X104748391Y-74410533D01*
X104295172Y-74713365D01*
X104013000Y-75135664D01*
X103730828Y-74713365D01*
X103277609Y-74410533D01*
X102743000Y-74304193D01*
X102208391Y-74410533D01*
X101755172Y-74713365D01*
X101473000Y-75135664D01*
X101190828Y-74713365D01*
X100737609Y-74410533D01*
X100203000Y-74304193D01*
X99668391Y-74410533D01*
X99215172Y-74713365D01*
X98912340Y-75166584D01*
X98806000Y-75701193D01*
X98055500Y-75701193D01*
X98055500Y-74081092D01*
X99100092Y-73036500D01*
X118237000Y-73036500D01*
X118508705Y-72982454D01*
X118739046Y-72828546D01*
X120580546Y-70987046D01*
X120734454Y-70756705D01*
X120788500Y-70485000D01*
X120788500Y-65660462D01*
X121204422Y-65660462D01*
X121711076Y-66886658D01*
X122648407Y-67825627D01*
X123873717Y-68334420D01*
X125200462Y-68335578D01*
X126426658Y-67828924D01*
X127365627Y-66891593D01*
X127874420Y-65666283D01*
X127875578Y-64339538D01*
X127368924Y-63113342D01*
X126431593Y-62174373D01*
X125206283Y-61665580D01*
X123879538Y-61664422D01*
X122653342Y-62171076D01*
X121714373Y-63108407D01*
X121205580Y-64333717D01*
X121204422Y-65660462D01*
X120788500Y-65660462D01*
X120788500Y-63222592D01*
X122785592Y-61225500D01*
X151597908Y-61225500D01*
X153531500Y-63159092D01*
G36*
X146358000Y-106588132D02*
X146277440Y-106668692D01*
X146277440Y-105830000D01*
X146233162Y-105594683D01*
X146094090Y-105378559D01*
X145881890Y-105233569D01*
X145814459Y-105219914D01*
X145859147Y-105190054D01*
X146181054Y-104708285D01*
X146294093Y-104140000D01*
X146181054Y-103571715D01*
X145859147Y-103089946D01*
X145518447Y-102862298D01*
X145661358Y-102795183D01*
X146051645Y-102366924D01*
X146221476Y-101956890D01*
X146100155Y-101727000D01*
X144907000Y-101727000D01*
X144907000Y-101747000D01*
X144653000Y-101747000D01*
X144653000Y-101727000D01*
X144633000Y-101727000D01*
X144633000Y-101473000D01*
X144653000Y-101473000D01*
X144653000Y-101453000D01*
X144907000Y-101453000D01*
X144907000Y-101473000D01*
X146100155Y-101473000D01*
X146221476Y-101243110D01*
X146051645Y-100833076D01*
X145661358Y-100404817D01*
X145518447Y-100337702D01*
X145859147Y-100110054D01*
X146181054Y-99628285D01*
X146294093Y-99060000D01*
X146199059Y-98582231D01*
X146358000Y-98423290D01*
X146358000Y-106588132D01*
X146358000Y-106588132D01*
G37*
X146358000Y-106588132D02*
X146277440Y-106668692D01*
X146277440Y-105830000D01*
X146233162Y-105594683D01*
X146094090Y-105378559D01*
X145881890Y-105233569D01*
X145814459Y-105219914D01*
X145859147Y-105190054D01*
X146181054Y-104708285D01*
X146294093Y-104140000D01*
X146181054Y-103571715D01*
X145859147Y-103089946D01*
X145518447Y-102862298D01*
X145661358Y-102795183D01*
X146051645Y-102366924D01*
X146221476Y-101956890D01*
X146100155Y-101727000D01*
X144907000Y-101727000D01*
X144907000Y-101747000D01*
X144653000Y-101747000D01*
X144653000Y-101727000D01*
X144633000Y-101727000D01*
X144633000Y-101473000D01*
X144653000Y-101473000D01*
X144653000Y-101453000D01*
X144907000Y-101453000D01*
X144907000Y-101473000D01*
X146100155Y-101473000D01*
X146221476Y-101243110D01*
X146051645Y-100833076D01*
X145661358Y-100404817D01*
X145518447Y-100337702D01*
X145859147Y-100110054D01*
X146181054Y-99628285D01*
X146294093Y-99060000D01*
X146199059Y-98582231D01*
X146358000Y-98423290D01*
X146358000Y-106588132D01*
G36*
X149987000Y-104013000D02*
X150007000Y-104013000D01*
X150007000Y-104267000D01*
X149987000Y-104267000D01*
X149987000Y-104287000D01*
X149733000Y-104287000D01*
X149733000Y-104267000D01*
X149713000Y-104267000D01*
X149713000Y-104013000D01*
X149733000Y-104013000D01*
X149733000Y-103993000D01*
X149987000Y-103993000D01*
X149987000Y-104013000D01*
X149987000Y-104013000D01*
G37*
X149987000Y-104013000D02*
X150007000Y-104013000D01*
X150007000Y-104267000D01*
X149987000Y-104267000D01*
X149987000Y-104287000D01*
X149733000Y-104287000D01*
X149733000Y-104267000D01*
X149713000Y-104267000D01*
X149713000Y-104013000D01*
X149733000Y-104013000D01*
X149733000Y-103993000D01*
X149987000Y-103993000D01*
X149987000Y-104013000D01*
G36*
X141197189Y-87374698D02*
X141601703Y-87644986D01*
X141384866Y-87747611D01*
X141008959Y-88162577D01*
X140848096Y-88550961D01*
X140970085Y-88773000D01*
X142113000Y-88773000D01*
X142113000Y-88753000D01*
X142367000Y-88753000D01*
X142367000Y-88773000D01*
X142387000Y-88773000D01*
X142387000Y-89027000D01*
X142367000Y-89027000D01*
X142367000Y-89047000D01*
X142113000Y-89047000D01*
X142113000Y-89027000D01*
X140970085Y-89027000D01*
X140848096Y-89249039D01*
X141008959Y-89637423D01*
X141384866Y-90052389D01*
X141890959Y-90291914D01*
X142112998Y-90170630D01*
X142112998Y-90322146D01*
X141897353Y-90321958D01*
X141553577Y-90464003D01*
X141290328Y-90726793D01*
X141276753Y-90759485D01*
X139763402Y-92272836D01*
X139763402Y-87370786D01*
X139939188Y-87195000D01*
X141077118Y-87195000D01*
X141197189Y-87374698D01*
X141197189Y-87374698D01*
G37*
X141197189Y-87374698D02*
X141601703Y-87644986D01*
X141384866Y-87747611D01*
X141008959Y-88162577D01*
X140848096Y-88550961D01*
X140970085Y-88773000D01*
X142113000Y-88773000D01*
X142113000Y-88753000D01*
X142367000Y-88753000D01*
X142367000Y-88773000D01*
X142387000Y-88773000D01*
X142387000Y-89027000D01*
X142367000Y-89027000D01*
X142367000Y-89047000D01*
X142113000Y-89047000D01*
X142113000Y-89027000D01*
X140970085Y-89027000D01*
X140848096Y-89249039D01*
X141008959Y-89637423D01*
X141384866Y-90052389D01*
X141890959Y-90291914D01*
X142112998Y-90170630D01*
X142112998Y-90322146D01*
X141897353Y-90321958D01*
X141553577Y-90464003D01*
X141290328Y-90726793D01*
X141276753Y-90759485D01*
X139763402Y-92272836D01*
X139763402Y-87370786D01*
X139939188Y-87195000D01*
X141077118Y-87195000D01*
X141197189Y-87374698D01*
G36*
X147447000Y-86233000D02*
X149733000Y-86233000D01*
X149733000Y-86213000D01*
X149987000Y-86213000D01*
X149987000Y-86233000D01*
X150007000Y-86233000D01*
X150007000Y-86487000D01*
X149987000Y-86487000D01*
X149987000Y-86507000D01*
X149733000Y-86507000D01*
X149733000Y-86487000D01*
X147447000Y-86487000D01*
X147447000Y-86507000D01*
X147193000Y-86507000D01*
X147193000Y-86487000D01*
X147173000Y-86487000D01*
X147173000Y-86233000D01*
X147193000Y-86233000D01*
X147193000Y-86213000D01*
X147447000Y-86213000D01*
X147447000Y-86233000D01*
X147447000Y-86233000D01*
G37*
X147447000Y-86233000D02*
X149733000Y-86233000D01*
X149733000Y-86213000D01*
X149987000Y-86213000D01*
X149987000Y-86233000D01*
X150007000Y-86233000D01*
X150007000Y-86487000D01*
X149987000Y-86487000D01*
X149987000Y-86507000D01*
X149733000Y-86507000D01*
X149733000Y-86487000D01*
X147447000Y-86487000D01*
X147447000Y-86507000D01*
X147193000Y-86507000D01*
X147193000Y-86487000D01*
X147173000Y-86487000D01*
X147173000Y-86233000D01*
X147193000Y-86233000D01*
X147193000Y-86213000D01*
X147447000Y-86213000D01*
X147447000Y-86233000D01*
G36*
X147447000Y-78613000D02*
X149733000Y-78613000D01*
X149733000Y-78593000D01*
X149987000Y-78593000D01*
X149987000Y-78613000D01*
X150007000Y-78613000D01*
X150007000Y-78867000D01*
X149987000Y-78867000D01*
X149987000Y-78887000D01*
X149733000Y-78887000D01*
X149733000Y-78867000D01*
X147447000Y-78867000D01*
X147447000Y-78887000D01*
X147193000Y-78887000D01*
X147193000Y-78867000D01*
X147173000Y-78867000D01*
X147173000Y-78613000D01*
X147193000Y-78613000D01*
X147193000Y-78593000D01*
X147447000Y-78593000D01*
X147447000Y-78613000D01*
X147447000Y-78613000D01*
G37*
X147447000Y-78613000D02*
X149733000Y-78613000D01*
X149733000Y-78593000D01*
X149987000Y-78593000D01*
X149987000Y-78613000D01*
X150007000Y-78613000D01*
X150007000Y-78867000D01*
X149987000Y-78867000D01*
X149987000Y-78887000D01*
X149733000Y-78887000D01*
X149733000Y-78867000D01*
X147447000Y-78867000D01*
X147447000Y-78887000D01*
X147193000Y-78887000D01*
X147193000Y-78867000D01*
X147173000Y-78867000D01*
X147173000Y-78613000D01*
X147193000Y-78613000D01*
X147193000Y-78593000D01*
X147447000Y-78593000D01*
X147447000Y-78613000D01*
M02*
